<svg id="Layer_1" data-name="Layer 1" xmlns="http://www.w3.org/2000/svg" viewBox="0 0 297 297"><defs><style>.cls-1,.cls-2{fill:#fff;}.cls-1{opacity:0;}</style></defs><rect class="cls-1" width="297" height="297"/><path class="cls-2" d="M982.73,489.15c-22-48-79.23-80.13-142.45-80.13H840c-63.07.09-120.19,32.3-142.17,80.13l-1.09,2.4,1.09,2.4c22,48,79.25,80.14,142.46,80.14h.29c63.07-.1,120.19-32.31,142.16-80.14l1.1-2.4ZM840.55,562.57h-.27c-57.72,0-109.87-28.41-130.85-71,20.92-42.49,73-70.92,130.58-71h.27c57.71,0,109.86,28.41,130.84,71C950.18,534.05,898.13,562.47,840.55,562.57Z" transform="translate(-691.5 -343)"/><path class="cls-2" d="M840.28,454.41a37.14,37.14,0,1,0,37.14,37.14A37.18,37.18,0,0,0,840.28,454.41Zm0,62.77a25.63,25.63,0,1,1,25.62-25.63A25.66,25.66,0,0,1,840.28,517.18Z" transform="translate(-691.5 -343)"/><path class="cls-2" d="M801.14,456.62a2,2,0,0,0-.9.9l-.85,1.67c.81-1,1.65-2,2.54-3Zm0,0a2,2,0,0,0-.9.9l-.85,1.67c.81-1,1.65-2,2.54-3Zm0,0a2,2,0,0,0-.9.9l-.85,1.67c.81-1,1.65-2,2.54-3Zm0,0a2,2,0,0,0-.9.9l-.85,1.67c.81-1,1.65-2,2.54-3Zm0,0a2,2,0,0,0-.9.9l-.85,1.67c.81-1,1.65-2,2.54-3Zm0,0a2,2,0,0,0-.9.9l-.85,1.67c.81-1,1.65-2,2.54-3Zm0,0a2,2,0,0,0-.9.9l-.85,1.67c.81-1,1.65-2,2.54-3Zm0,0a2,2,0,0,0-.9.9l-.85,1.67c.81-1,1.65-2,2.54-3Zm0,0a2,2,0,0,0-.9.9l-.85,1.67c.81-1,1.65-2,2.54-3Zm0,0a2,2,0,0,0-.9.9l-.85,1.67c.81-1,1.65-2,2.54-3Zm0,0a2,2,0,0,0-.9.9l-.85,1.67c.81-1,1.65-2,2.54-3Zm0,0a2,2,0,0,0-.9.9l-.85,1.67c.81-1,1.65-2,2.54-3Zm0,0a2,2,0,0,0-.9.9l-.85,1.67c.81-1,1.65-2,2.54-3Zm0,0a2,2,0,0,0-.9.9l-.85,1.67c.81-1,1.65-2,2.54-3Zm0,0a2,2,0,0,0-.9.9l-.85,1.67c.81-1,1.65-2,2.54-3Zm0,0a2,2,0,0,0-.9.9l-.85,1.67c.81-1,1.65-2,2.54-3Zm0,0a2,2,0,0,0-.9.9l-.85,1.67c.81-1,1.65-2,2.54-3Zm0,0a2,2,0,0,0-.9.9l-.85,1.67c.81-1,1.65-2,2.54-3Zm0,0a2,2,0,0,0-.9.9l-.85,1.67c.81-1,1.65-2,2.54-3Zm0,0a2,2,0,0,0-.9.9l-.85,1.67c.81-1,1.65-2,2.54-3Zm0,0a2,2,0,0,0-.9.9l-.85,1.67c.81-1,1.65-2,2.54-3Zm0,0a2,2,0,0,0-.9.9l-.85,1.67c.81-1,1.65-2,2.54-3Zm0,0a2,2,0,0,0-.9.9l-.85,1.67c.81-1,1.65-2,2.54-3Zm0,0a2,2,0,0,0-.9.9l-.85,1.67c.81-1,1.65-2,2.54-3Zm0,0a2,2,0,0,0-.9.9l-.85,1.67c.81-1,1.65-2,2.54-3Zm0,0a2,2,0,0,0-.9.9l-.85,1.67c.81-1,1.65-2,2.54-3Zm0,0a2,2,0,0,0-.9.9l-.85,1.67c.81-1,1.65-2,2.54-3Zm0,0a2,2,0,0,0-.9.9l-.85,1.67c.81-1,1.65-2,2.54-3Zm0,0a2,2,0,0,0-.9.9l-.85,1.67c.81-1,1.65-2,2.54-3Zm39.14-28.75a63.29,63.29,0,0,0-35.19,10.63c-1.07.71-2.13,1.46-3.16,2.25s-2.07,1.61-3.07,2.47l1.38,2.75a2.06,2.06,0,0,0,.9.9l6.12,3.05a1.81,1.81,0,0,1,.77.67c1-.8,2-1.57,3.09-2.28s2.17-1.4,3.28-2a51.65,51.65,0,0,1,25.88-6.89A52.18,52.18,0,1,1,792,471.84c.49-1.21,1-2.38,1.62-3.53s1.25-2.4,1.94-3.57a.55.55,0,0,1-.18,0,2,2,0,0,1-1.8-1.12l-3.07-6.12a2,2,0,0,0-.9-.9l-1.9-1c-.71,1-1.42,2.15-2.08,3.26s-1.28,2.21-1.86,3.34a63,63,0,0,0-7.16,29.29,63.69,63.69,0,1,0,63.69-63.68Zm-40,29.65-.85,1.67c.81-1,1.65-2,2.54-3l-.79.4A2,2,0,0,0,800.24,457.52Zm.9-.9a2,2,0,0,0-.9.9l-.85,1.67c.81-1,1.65-2,2.54-3Zm0,0a2,2,0,0,0-.9.9l-.85,1.67c.81-1,1.65-2,2.54-3Zm0,0a2,2,0,0,0-.9.9l-.85,1.67c.81-1,1.65-2,2.54-3Zm0,0a2,2,0,0,0-.9.9l-.85,1.67c.81-1,1.65-2,2.54-3Zm0,0a2,2,0,0,0-.9.9l-.85,1.67c.81-1,1.65-2,2.54-3Zm0,0a2,2,0,0,0-.9.9l-.85,1.67c.81-1,1.65-2,2.54-3Zm0,0a2,2,0,0,0-.9.9l-.85,1.67c.81-1,1.65-2,2.54-3Zm0,0a2,2,0,0,0-.9.9l-.85,1.67c.81-1,1.65-2,2.54-3Zm0,0a2,2,0,0,0-.9.9l-.85,1.67c.81-1,1.65-2,2.54-3Zm0,0a2,2,0,0,0-.9.9l-.85,1.67c.81-1,1.65-2,2.54-3Zm0,0a2,2,0,0,0-.9.9l-.85,1.67c.81-1,1.65-2,2.54-3Zm0,0a2,2,0,0,0-.9.9l-.85,1.67c.81-1,1.65-2,2.54-3Zm0,0a2,2,0,0,0-.9.9l-.85,1.67c.81-1,1.65-2,2.54-3Zm0,0a2,2,0,0,0-.9.9l-.85,1.67c.81-1,1.65-2,2.54-3Zm0,0a2,2,0,0,0-.9.9l-.85,1.67c.81-1,1.65-2,2.54-3Zm0,0a2,2,0,0,0-.9.9l-.85,1.67c.81-1,1.65-2,2.54-3Zm0,0a2,2,0,0,0-.9.9l-.85,1.67c.81-1,1.65-2,2.54-3Zm0,0a2,2,0,0,0-.9.9l-.85,1.67c.81-1,1.65-2,2.54-3Zm0,0a2,2,0,0,0-.9.9l-.85,1.67c.81-1,1.65-2,2.54-3Zm0,0a2,2,0,0,0-.9.9l-.85,1.67c.81-1,1.65-2,2.54-3Zm0,0a2,2,0,0,0-.9.9l-.85,1.67c.81-1,1.65-2,2.54-3Zm0,0a2,2,0,0,0-.9.9l-.85,1.67c.81-1,1.65-2,2.54-3Zm0,0a2,2,0,0,0-.9.9l-.85,1.67c.81-1,1.65-2,2.54-3Zm0,0a2,2,0,0,0-.9.9l-.85,1.67c.81-1,1.65-2,2.54-3Zm0,0a2,2,0,0,0-.9.9l-.85,1.67c.81-1,1.65-2,2.54-3Zm0,0a2,2,0,0,0-.9.9l-.85,1.67c.81-1,1.65-2,2.54-3Zm0,0a2,2,0,0,0-.9.9l-.85,1.67c.81-1,1.65-2,2.54-3Zm0,0a2,2,0,0,0-.9.9l-.85,1.67c.81-1,1.65-2,2.54-3Z" transform="translate(-691.5 -343)"/><path class="cls-2" d="M814.4,446.27a9.76,9.76,0,0,0-3.7-3.2l-4.43-2.23-1.18-2.34L804,436.41a9.68,9.68,0,0,0-17.35,0l-2.23,4.43L780,443.07a9.7,9.7,0,0,0,0,17.35l3.72,1.84.71.37,2.23,4.45a9.77,9.77,0,0,0,5.29,4.76,10.05,10.05,0,0,0,3.38.59,9.64,9.64,0,0,0,8.68-5.35l2.23-4.45,4.43-2.21a9.73,9.73,0,0,0,3.7-14.15Zm-7.14,7.28-5.33,2.67-.79.4a2,2,0,0,0-.9.9l-.85,1.67-2.22,4.45a1.9,1.9,0,0,1-1.63,1.1.55.55,0,0,1-.18,0,2,2,0,0,1-1.8-1.12l-3.07-6.12a2,2,0,0,0-.9-.9l-1.9-1-4.23-2.11a2,2,0,0,1,0-3.63l6.13-3.05a2.06,2.06,0,0,0,.9-.9l3.07-6.15a2,2,0,0,1,3.61,0l1.69,3.4,1.38,2.75a2.06,2.06,0,0,0,.9.9l6.12,3.05a1.81,1.81,0,0,1,.77.67A2,2,0,0,1,807.26,453.55Z" transform="translate(-691.5 -343)"/></svg>