<svg id="Layer_1" data-name="Layer 1" xmlns="http://www.w3.org/2000/svg" viewBox="0 0 157.7 157.7"><defs><style>.cls-1,.cls-2{fill:#fff;}.cls-1{stroke:#231f20;stroke-miterlimit:10;opacity:0;}.cls-2{fill-opacity:0;}.cls-3{fill:#231f20;}</style></defs><rect class="cls-1" x="0.5" y="0.5" width="156.7" height="156.7"/><rect class="cls-2" x="0.16" y="15.97" width="157.36" height="125.75"/><path class="cls-3" d="M260.59,455.33l-4.78,5.26c2.05,1,4.17,2,6.32,2.89l4.93-5.44C264.85,457.26,262.69,456.26,260.59,455.33ZM374.82,418.9c-6.41-15.39-18.25-28.1-33.14-36.64L337,387.44c14,7.54,25.21,19,31.46,32.91-11.46,25.71-40,42.91-71.57,42.91h-.15a86.58,86.58,0,0,1-25.12-3.72l-5.07,5.58a91.33,91.33,0,0,0,30.19,5.14h.16c34.59,0,65.9-19.52,77.93-48.41l.61-1.47Zm-78.07-48.46h-.15c-34.58.07-65.91,19.55-77.93,48.45l-.61,1.45.61,1.47c6.4,15.39,18.26,28.1,33.15,36.63l4.67-5.18c-14-7.55-25.22-19-31.46-32.93,11.47-25.69,40-42.88,71.57-42.93h.15a86,86,0,0,1,25.14,3.73l5.06-5.59a91.26,91.26,0,0,0-30.2-5.1Zm34.63,6.82-4.94,5.44c2.2.81,4.39,1.72,6.47,2.7l4.77-5.25c-2-1-4.16-2-6.3-2.88Z" transform="translate(-217.9 -341.53)"/><path class="cls-3" d="M317.85,392.16l-4.49,5a28.26,28.26,0,0,1,4.49,4.91l4.48-4.94A33.49,33.49,0,0,0,317.85,392.16Zm-42.17,46.56-4.46,4.92a36.42,36.42,0,0,0,4.45,4.92l4.5-4.94a29.59,29.59,0,0,1-4.49-4.93Zm49.13-37.85-4.6,5.09c7.18,14.3,2.48,32.35-10.51,40.3a24.7,24.7,0,0,1-26,0l-4.6,5.09c15.5,10.76,36,5.63,45.72-11.46A39.79,39.79,0,0,0,324.81,400.87Zm-28.06-17.1c-18.31,0-33.15,16.36-33.16,36.55a39.5,39.5,0,0,0,5.1,19.49l4.6-5.08c-7.18-14.32-2.47-32.35,10.52-40.27a24.66,24.66,0,0,1,26,0l4.59-5.09a30.75,30.75,0,0,0-17.64-5.6Zm21.1,8.39-4.49,5a28.26,28.26,0,0,1,4.49,4.91l4.48-4.94a33.55,33.55,0,0,0-4.46-4.92Z" transform="translate(-217.9 -341.53)"/><path class="cls-3" d="M352.44,363.84l-14.75,16.27-4.77,5.26L322.3,397.08,317.81,402l-37.67,41.59-4.49,4.94L267.07,458l-4.94,5.44-16.6,18.31a3,3,0,0,1-4.24.13l-.22-.23a3.77,3.77,0,0,1,0-4.82l14.75-16.28,4.78-5.26,15.1-16.64,37.68-41.59L348,359a3,3,0,0,1,4.25-.05c.07.08.15.16.21.24a3.7,3.7,0,0,1,0,4.73Z" transform="translate(-217.9 -341.53)"/></svg>