<svg id="Layer_1" data-name="Layer 1" xmlns="http://www.w3.org/2000/svg" viewBox="0 0 122.73 143.02"><defs><style>.cls-1,.cls-2{fill:#fff;}.cls-2{fill-rule:evenodd;}</style></defs><path class="cls-1" d="M331,335.32V303.76a5.12,5.12,0,0,1,10.22,0v33.29a4.57,4.57,0,0,1-1.21,3.08l-32,35.33a5.35,5.35,0,0,1-7.19.56,4.55,4.55,0,0,1-.59-6.71Z" transform="translate(-274.11 -266.56)"/><path class="cls-2" d="M285.14,274l3.76,4.81c29.38-20.64,69.72-14.76,92.52,14.44,24,30.77,19.48,75.79-10.15,100.54s-73.13,19.88-97.16-10.89l7.16-6,0,0c20.83,26.69,58.54,30.92,84.23,9.45s29.64-60.49,8.8-87.17c-19.61-25.12-54.18-30.34-79.6-12.95l3.66,4.68c1.8,2.3-1.59,4.54-2.71,4.42l-16.7.53a2.45,2.45,0,0,1-2.12-2.72l4-16.78C281,274.91,283.15,271.43,285.14,274Z" transform="translate(-274.11 -266.56)"/></svg>