<svg id="Bg" xmlns="http://www.w3.org/2000/svg" viewBox="0 0 104.07 100.02"><defs><style>.cls-1{fill:#fff;stroke:#fff;stroke-miterlimit:10;stroke-width:2px;}</style></defs><path class="cls-1" d="M546.51,619.54a1.74,1.74,0,0,0,1.6,1.08h42.2a1.74,1.74,0,0,0,1.73-1.73,43.67,43.67,0,0,0-12.39-30.55,1.71,1.71,0,0,0-2.44,0l-30.3,29.35a1.72,1.72,0,0,0-.52,1.24A1.82,1.82,0,0,0,546.51,619.54Zm5.87-2.38,26-25.15a40.24,40.24,0,0,1,10.2,25.15Z" transform="translate(-488.96 -572.11)"/><path class="cls-1" d="M539.09,618.75a1.72,1.72,0,0,0,1.36-.48l30.3-29.35a1.75,1.75,0,0,0,.53-1.21,1.8,1.8,0,0,0-.49-1.23,43.89,43.89,0,0,0-56.93-5.28,1.72,1.72,0,0,0-.73,1.41,1.68,1.68,0,0,0,.32,1L537.84,618A1.71,1.71,0,0,0,539.09,618.75Zm-21.81-35.7a40.44,40.44,0,0,1,49.8,4.61l-27.59,26.73Z" transform="translate(-488.96 -572.11)"/><path class="cls-1" d="M540.62,670.72q1.08-.13,2.13-.33h0a43.33,43.33,0,0,0,4.49-1.06c.63-.18,1.26-.38,1.88-.59,1.34-.46,2.68-1,4-1.57.57-.26,1.12-.52,1.68-.8,1.2-.6,2.39-1.27,3.56-2,.5-.31,1-.63,1.49-1,1.21-.83,2.39-1.72,3.52-2.65l1.32-1.15c1-.86,1.89-1.79,2.79-2.75.4-.43.78-.86,1.16-1.3.86-1,1.69-2,2.45-3.1.35-.48.69-1,1-1.46a39.77,39.77,0,0,0,2.08-3.47c.29-.53.57-1.08.84-1.63a44.56,44.56,0,0,0,1.83-4.33c.22-.61.44-1.22.63-1.84a45.41,45.41,0,0,0,1.14-4.42c.14-.69.26-1.38.37-2.09a41.51,41.51,0,0,0,.48-5.06c0-.6,0-1.2,0-1.8a2.57,2.57,0,0,0-2.57-2.57H536.05l-23.62-33.33a2.58,2.58,0,0,0-3.59-.61l-.22.17c-1,.72-2,1.52-3.1,2.46-.44.38-.87.76-1.29,1.15-.93.87-1.85,1.81-2.75,2.81q-.59.64-1.14,1.32a41.73,41.73,0,0,0-2.66,3.51c-.28.41-.54.84-.8,1.26l-.16.25c-.72,1.16-1.39,2.35-2,3.56-.27.55-.54,1.1-.79,1.66a41.56,41.56,0,0,0-1.57,4c-.21.62-.41,1.24-.59,1.86a43.9,43.9,0,0,0-1.08,4.48c-.13.71-.23,1.43-.32,2.14a43.46,43.46,0,0,0-.4,5.72s0,.14,0,.17c0,.81,0,1.61.07,2.4a43.92,43.92,0,0,0,.8,6.35c.21,1.06.47,2.12.78,3.25a44.82,44.82,0,0,0,31.11,31.12c1.15.31,2.21.57,3.25.78a46.84,46.84,0,0,0,6.36.8q1.18.06,2.4.06h.12A45.89,45.89,0,0,0,540.62,670.72Zm-8.11-3.11a42.67,42.67,0,0,1-5.86-.74c-1-.19-1.94-.43-3-.72a41.31,41.31,0,0,1-8.59-3.47,41.73,41.73,0,0,1-7.62-5.35,40.16,40.16,0,0,1-3.69-3.69,41,41,0,0,1-5.34-7.62,40.24,40.24,0,0,1-3.47-8.59c-.29-1-.53-2-.72-3a40.3,40.3,0,0,1-.74-5.86c0-.73-.07-1.47-.06-2.21v-.12a42.27,42.27,0,0,1,.37-5.33c.09-.66.18-1.31.3-2a40.54,40.54,0,0,1,1-4.14c.17-.58.35-1.15.55-1.72a38.81,38.81,0,0,1,1.44-3.68c.23-.52.48-1,.73-1.54.56-1.1,1.18-2.21,1.85-3.28l.16-.25q.35-.58.72-1.14A39.5,39.5,0,0,1,503,600c.35-.41.7-.82,1.06-1.22.83-.93,1.68-1.79,2.54-2.59.39-.37.79-.72,1.19-1.07.82-.7,1.59-1.32,2.35-1.89l23.62,33.32a1.72,1.72,0,0,0,1.41.73H576l0,.77a41.08,41.08,0,0,1-.44,4.67c-.1.65-.22,1.3-.35,1.93a40,40,0,0,1-1.05,4.08c-.18.57-.37,1.13-.58,1.69a40.27,40.27,0,0,1-1.69,4c-.24.5-.5,1-.77,1.51-.57,1.05-1.21,2.13-1.93,3.2-.29.45-.6.89-.92,1.34-.71,1-1.47,1.94-2.26,2.86q-.53.62-1.08,1.2c-.83.9-1.7,1.75-2.58,2.55-.4.36-.8.71-1.22,1.05a38.75,38.75,0,0,1-3.24,2.45c-.46.31-.92.6-1.38.89-1.07.67-2.17,1.28-3.28,1.84-.51.26-1,.5-1.55.74-1.2.54-2.43,1-3.67,1.44-.57.2-1.14.38-1.73.55a39.76,39.76,0,0,1-4.14,1c-.65.12-1.3.22-2,.31a40.88,40.88,0,0,1-5.32.36h-.12C534,667.67,533.24,667.64,532.51,667.61Z" transform="translate(-488.96 -572.11)"/></svg>