<svg id="Bg" xmlns="http://www.w3.org/2000/svg" viewBox="0 0 57.85 57.2"><path d="M496.11,736.33l0-.26-1.2-6.8a.92.92,0,0,0-.41-.64,1,1,0,0,0-.73-.16l-2.59.46-.36,0c-3.27.44-4-1.87-4-1.85-.2-.41-.42-.8-.66-1.2,0,0,0,0-.08-.13s-.09-.14-.13-.22a3.11,3.11,0,0,1-.36-1l0-.28a4.68,4.68,0,0,1,0-.53.37.37,0,0,0,0-.11,3.67,3.67,0,0,1,.09-.43l3.28-3.9.08-.12a1.09,1.09,0,0,0,.14-.6,1.23,1.23,0,0,0-.08-.29.94.94,0,0,0-.27-.38l-5.49-4.61a1,1,0,0,0-.72-.22,1,1,0,0,0-.66.35l-1.69,2a3.45,3.45,0,0,0-.25.27c-2.24,2.43-4.25,1.11-4.26,1.13-.62-.26-1.24-.49-1.88-.7a3.18,3.18,0,0,1-1.56-1.56v-5.08a1,1,0,0,0-1-1H464.1a1,1,0,0,0-1,1v2.62c0,.11,0,.24,0,.37-.15,3.3-2.53,3.58-2.53,3.59-.67.21-1.33.45-2,.71a3.29,3.29,0,0,1-2.12-.21l-3.27-3.9a.91.91,0,0,0-.66-.35,1,1,0,0,0-.72.22l-5.5,4.61a1.05,1.05,0,0,0-.27.38.88.88,0,0,0-.07.29,1,1,0,0,0,.14.6l.08.12,1.69,2,.21.29a4.36,4.36,0,0,1,1,2.17.31.31,0,0,1,0,.09,1.83,1.83,0,0,1,0,.52l0,.28a3,3,0,0,1-.58,1.33,20.12,20.12,0,0,0-1.05,1.8,3.22,3.22,0,0,1-1.76,1.19l-5-.88a.92.92,0,0,0-.73.16.94.94,0,0,0-.4.63l-1.21,6.8,0,.26a.93.93,0,0,0,.08.59.55.55,0,0,0,.08.15,1,1,0,0,0,.63.4l2.59.46.35.09c3.23.71,3.08,3.12,3.08,3.12h0c.08.64.19,1.27.32,1.88,0,0,0,0,0,.08v0a2.15,2.15,0,0,1,0,.44v.05c0,.1,0,.22,0,.33a3.23,3.23,0,0,1-.54,1.31l-4.41,2.54a1,1,0,0,0-.4.46.43.43,0,0,0-.05.13,1,1,0,0,0,.09.75l0,0,3.57,6.19a1,1,0,0,0,1.34.35l2.28-1.31.33-.16c2.93-1.52,4.37.4,4.39.38.34.3.68.6,1,.89a.44.44,0,0,0,.13.1l.22.18a3.06,3.06,0,0,1,1,1.61.38.38,0,0,1,0,.1,2.83,2.83,0,0,1,.06.42l0,.13-.09.23-1.58,4.37,0,.06a1,1,0,0,0,0,.75s0,0,.05.06a1,1,0,0,0,.51.44l6.74,2.45a1,1,0,0,0,.75,0,1,1,0,0,0,.51-.55l.9-2.47c.05-.11.09-.21.14-.34,1.27-3.05,3.62-2.51,3.62-2.55.35,0,.71,0,1.06,0h.3a3.31,3.31,0,0,1,2.63,1l1.74,4.79a1,1,0,0,0,.51.54.94.94,0,0,0,.75,0l6.74-2.45a1,1,0,0,0,.51-.45l0-.06a1,1,0,0,0,0-.75l0-.06-.88-2.41c0-.11-.07-.22-.11-.35a5.62,5.62,0,0,1-.23-1,2.65,2.65,0,0,1,0-.27v-.07a2.53,2.53,0,0,1,0-.48v-.1a3.15,3.15,0,0,1,1.36-2.32c.36-.28.72-.56,1.07-.86a3.34,3.34,0,0,1,2.63-1l4.4,2.54a1.07,1.07,0,0,0,.75.1,1,1,0,0,0,.59-.46l3.58-6.18v0a1,1,0,0,0,.1-.75.69.69,0,0,0-.05-.13,1,1,0,0,0-.41-.46l-2.27-1.31-.31-.21a3.84,3.84,0,0,1-2-2.61,2.51,2.51,0,0,1,0-.27h0a2.39,2.39,0,0,1,0-.54.38.38,0,0,1,0-.1c0-.29.1-.46.09-.47.1-.44.19-.89.26-1.34a3.29,3.29,0,0,1,1.4-2.42l5-.89a.91.91,0,0,0,.63-.4s.06-.1.09-.14A.94.94,0,0,0,496.11,736.33Zm-12.58.86a.37.37,0,0,1,0,.11s0,.05,0,.07a.08.08,0,0,1,0,.07v.26a16.44,16.44,0,0,1-32.86,0,2.17,2.17,0,0,1,0-.26v-.25a2.17,2.17,0,0,1,0-.26.14.14,0,0,1,0-.09,16.43,16.43,0,0,1,32.86,0v.09A2.17,2.17,0,0,1,483.53,737.19Z" transform="translate(-438.28 -708.48)"/></svg>