<svg id="Bg" xmlns="http://www.w3.org/2000/svg" viewBox="0 0 37.21 52.17"><defs><style>.cls-1{fill-rule:evenodd;}</style></defs><path class="cls-1" d="M581,639.71h0a1.45,1.45,0,1,1,1.41-1.41,1.46,1.46,0,0,1-1.41,1.41Z" transform="translate(-558.12 -623.91)"/><path class="cls-1" d="M563.83,639.71h0a1.4,1.4,0,0,1-1.49-1.33,1.43,1.43,0,0,1,1.49-1.49,1.49,1.49,0,0,1,1.49,1.49,1.46,1.46,0,0,1-1.49,1.33Z" transform="translate(-558.12 -623.91)"/><path class="cls-1" d="M568.13,639.71h0a1.4,1.4,0,0,1-1.49-1.33,1.43,1.43,0,0,1,1.49-1.49,1.37,1.37,0,0,1,1.4,1.49,1.33,1.33,0,0,1-1.4,1.33Z" transform="translate(-558.12 -623.91)"/><path class="cls-1" d="M572.51,639.71h0a1.36,1.36,0,0,1-1.49-1.33,1.39,1.39,0,0,1,1.49-1.49,1.41,1.41,0,0,1,1.4,1.49,1.38,1.38,0,0,1-1.4,1.33Z" transform="translate(-558.12 -623.91)"/><path class="cls-1" d="M576.72,639.71h0a1.45,1.45,0,0,1-1.48-1.33,1.48,1.48,0,0,1,1.48-1.49,1.43,1.43,0,0,1,1.49,1.49,1.4,1.4,0,0,1-1.49,1.33Z" transform="translate(-558.12 -623.91)"/><path class="cls-1" d="M559.53,639.71h0a1.38,1.38,0,0,1-1.41-1.33,1.42,1.42,0,0,1,1.41-1.49,1.43,1.43,0,0,1,1.48,1.49,1.4,1.4,0,0,1-1.48,1.33Z" transform="translate(-558.12 -623.91)"/><path class="cls-1" d="M585.24,639.71h0a1.45,1.45,0,0,1,0-2.9,1.45,1.45,0,1,1,0,2.9Z" transform="translate(-558.12 -623.91)"/><path class="cls-1" d="M585.24,630.94h0a1.34,1.34,0,0,1-1.4-1.4,1.46,1.46,0,0,1,1.4-1.49,1.48,1.48,0,0,1,1.49,1.49,1.36,1.36,0,0,1-1.49,1.4Z" transform="translate(-558.12 -623.91)"/><path class="cls-1" d="M585.24,648.47h0a1.46,1.46,0,0,1-1.4-1.49,1.39,1.39,0,0,1,1.4-1.4,1.41,1.41,0,0,1,1.49,1.4,1.48,1.48,0,0,1-1.49,1.49Z" transform="translate(-558.12 -623.91)"/><path class="cls-1" d="M589.54,639.71h0A1.45,1.45,0,1,1,591,638.3a1.47,1.47,0,0,1-1.41,1.41Z" transform="translate(-558.12 -623.91)"/><path class="cls-1" d="M581,626.81h0a1.47,1.47,0,0,1-1.49-1.41,1.49,1.49,0,0,1,1.49-1.49,1.47,1.47,0,0,1,1.41,1.49,1.45,1.45,0,0,1-1.41,1.41Z" transform="translate(-558.12 -623.91)"/><path class="cls-1" d="M581,652.6h0a1.47,1.47,0,0,1-1.49-1.4,1.49,1.49,0,0,1,1.49-1.49,1.47,1.47,0,0,1,1.41,1.49,1.45,1.45,0,0,1-1.41,1.4Z" transform="translate(-558.12 -623.91)"/><path class="cls-1" d="M593.92,639.71h0a1.45,1.45,0,1,1,1.41-1.41,1.46,1.46,0,0,1-1.41,1.41Z" transform="translate(-558.12 -623.91)"/><path class="cls-1" d="M589.54,644.09h0a1.47,1.47,0,0,1-1.49-1.41,1.45,1.45,0,1,1,2.9,0,1.46,1.46,0,0,1-1.41,1.41Z" transform="translate(-558.12 -623.91)"/><path class="cls-1" d="M572.51,663.19h0a1.47,1.47,0,0,0,1.4-1.49,1.45,1.45,0,0,0-1.4-1.41,1.45,1.45,0,1,0,0,2.9Z" transform="translate(-558.12 -623.91)"/><path class="cls-1" d="M589.62,663.19h0a1.43,1.43,0,0,0,1.49-1.49,1.47,1.47,0,0,0-1.49-1.41,1.45,1.45,0,0,0-1.4,1.41,1.41,1.41,0,0,0,1.4,1.49Z" transform="translate(-558.12 -623.91)"/><path class="cls-1" d="M585.24,663.19h0a1.39,1.39,0,0,0,1.49-1.49,1.42,1.42,0,0,0-1.49-1.41,1.38,1.38,0,0,0-1.32,1.41,1.35,1.35,0,0,0,1.32,1.49Z" transform="translate(-558.12 -623.91)"/><path class="cls-1" d="M581,663.19h0a1.42,1.42,0,0,0,1.41-1.49,1.46,1.46,0,0,0-1.41-1.41,1.48,1.48,0,0,0-1.49,1.41,1.44,1.44,0,0,0,1.49,1.49Z" transform="translate(-558.12 -623.91)"/><path class="cls-1" d="M576.72,663.19h0a1.43,1.43,0,0,0,1.49-1.49,1.47,1.47,0,0,0-1.49-1.41,1.53,1.53,0,0,0-1.48,1.41,1.48,1.48,0,0,0,1.48,1.49Z" transform="translate(-558.12 -623.91)"/><path class="cls-1" d="M593.92,663.19h0a1.42,1.42,0,0,0,1.41-1.49,1.46,1.46,0,0,0-1.41-1.41,1.48,1.48,0,0,0-1.49,1.41,1.44,1.44,0,0,0,1.49,1.49Z" transform="translate(-558.12 -623.91)"/><path class="cls-1" d="M568.21,663.19h0a1.45,1.45,0,1,0,0-2.9,1.45,1.45,0,1,0,0,2.9Z" transform="translate(-558.12 -623.91)"/><path class="cls-1" d="M568.21,654.42h0a1.45,1.45,0,1,0,0-2.89,1.46,1.46,0,0,0-1.49,1.4,1.48,1.48,0,0,0,1.49,1.49Z" transform="translate(-558.12 -623.91)"/><path class="cls-1" d="M568.21,671.87h0a1.49,1.49,0,0,0,1.49-1.49,1.4,1.4,0,0,0-1.49-1.32,1.35,1.35,0,0,0-1.49,1.32,1.43,1.43,0,0,0,1.49,1.49Z" transform="translate(-558.12 -623.91)"/><path class="cls-1" d="M563.91,663.19h0a1.45,1.45,0,1,0,0-2.9,1.46,1.46,0,0,0-1.41,1.41,1.47,1.47,0,0,0,1.41,1.49Z" transform="translate(-558.12 -623.91)"/><path class="cls-1" d="M572.51,650.29h0a1.46,1.46,0,0,0,1.4-1.49,1.44,1.44,0,0,0-1.4-1.4,1.46,1.46,0,0,0-1.49,1.4,1.48,1.48,0,0,0,1.49,1.49Z" transform="translate(-558.12 -623.91)"/><path class="cls-1" d="M572.51,676.09h0a1.45,1.45,0,0,0,1.4-1.41,1.46,1.46,0,0,0-1.4-1.49,1.48,1.48,0,0,0-1.49,1.49,1.47,1.47,0,0,0,1.49,1.41Z" transform="translate(-558.12 -623.91)"/><path class="cls-1" d="M559.53,663.19h0A1.49,1.49,0,0,0,561,661.7a1.47,1.47,0,0,0-1.48-1.41,1.46,1.46,0,0,0-1.41,1.41,1.47,1.47,0,0,0,1.41,1.49Z" transform="translate(-558.12 -623.91)"/><path class="cls-1" d="M563.91,667.57h0a1.49,1.49,0,0,0,1.49-1.49,1.37,1.37,0,0,0-1.49-1.41,1.35,1.35,0,0,0-1.41,1.41,1.47,1.47,0,0,0,1.41,1.49Z" transform="translate(-558.12 -623.91)"/><path class="cls-1" d="M563.91,658.8h0a1.45,1.45,0,1,0,0-2.89,1.45,1.45,0,0,0-1.41,1.41,1.46,1.46,0,0,0,1.41,1.48Z" transform="translate(-558.12 -623.91)"/><path class="cls-1" d="M589.54,635.32a1.36,1.36,0,0,1-1.49-1.4,1.45,1.45,0,1,1,2.9,0,1.34,1.34,0,0,1-1.41,1.4Z" transform="translate(-558.12 -623.91)"/></svg>