<svg id="Layer_1" data-name="Layer 1" xmlns="http://www.w3.org/2000/svg" viewBox="0 0 214 214"><defs><style>.cls-1{fill:#fff;opacity:0;}</style></defs><rect class="cls-1" width="214" height="214"/><path d="M854.5,517.74a52.59,52.59,0,1,1,52.59-52.59A52.66,52.66,0,0,1,854.5,517.74Zm0-94.67a42.08,42.08,0,1,0,42.07,42.08A42.13,42.13,0,0,0,854.5,423.07Z" transform="translate(-746 -358)"/><path d="M854.5,392.55a5.26,5.26,0,0,1-5.26-5.26V365.37a5.26,5.26,0,1,1,10.52,0v21.92A5.27,5.27,0,0,1,854.5,392.55Z" transform="translate(-746 -358)"/><path d="M906.84,419.28a5.26,5.26,0,0,1-3.72-9L922,391.46a5.25,5.25,0,0,1,7.43,7.43l-18.84,18.85A5.27,5.27,0,0,1,906.84,419.28Z" transform="translate(-746 -358)"/><path d="M793.77,419.28a5.29,5.29,0,0,1-3.72-1.54l-18.84-18.85a5.25,5.25,0,1,1,7.43-7.43l18.85,18.84a5.26,5.26,0,0,1-3.72,9Z" transform="translate(-746 -358)"/><path d="M850.31,569.39a5.25,5.25,0,0,1-5.26-5.26V542.21a5.26,5.26,0,1,1,10.51,0v21.92A5.25,5.25,0,0,1,850.31,569.39Z" transform="translate(-746 -358)"/><path d="M779.12,539.58a5.26,5.26,0,0,1-3.72-9l18.84-18.84a5.26,5.26,0,1,1,7.44,7.43L782.84,538A5.25,5.25,0,0,1,779.12,539.58Z" transform="translate(-746 -358)"/><path d="M929.88,539.58a5.25,5.25,0,0,1-3.72-1.54l-18.84-18.85a5.25,5.25,0,0,1,7.43-7.43L933.6,530.6a5.26,5.26,0,0,1-3.72,9Z" transform="translate(-746 -358)"/><path d="M774.93,470.41H751.26a5.26,5.26,0,1,1,0-10.52h23.67a5.26,5.26,0,1,1,0,10.52Z" transform="translate(-746 -358)"/><path d="M953.74,470.41h-28a5.26,5.26,0,0,1,0-10.52h28a5.26,5.26,0,0,1,0,10.52Z" transform="translate(-746 -358)"/></svg>