<svg id="Layer_1" data-name="Layer 1" xmlns="http://www.w3.org/2000/svg" viewBox="0 0 512.01 512"><defs><style>.cls-1{fill:#fff;}</style></defs><path class="cls-1" d="M544.61,235.13l-61.25-61.25a31.93,31.93,0,0,0-22.65-9.38H297.11a64,64,0,0,0-64,64v256c.88,35.4,29.58,64,64.88,64H490a64.18,64.18,0,0,0,64-64V257.75A32,32,0,0,0,544.61,235.13ZM506,484.5a16,16,0,0,1-16,16H297.11a16,16,0,0,1-16-16V228.63a16,16,0,0,1,16-16h128L426,260.5a32,32,0,0,0,32,32h47.11v192Zm-192,128a16,16,0,0,1-16,16H105.1a16,16,0,0,1-16-16L90,356.6a16,16,0,0,1,16-16h96V292.5H106a64,64,0,0,0-64,64v256a64,64,0,0,0,64,64H298a64.18,64.18,0,0,0,64-64v-32H314.9Z" transform="translate(-42 -164.5)"/></svg>