<svg id="Layer_1" data-name="Layer 1" xmlns="http://www.w3.org/2000/svg" viewBox="0 0 297 297"><defs><style>.cls-1,.cls-2{fill:#fff;}.cls-1{opacity:0;}</style></defs><rect class="cls-1" width="297" height="297"/><path class="cls-2" d="M773.7,548.84l-8.72,8.7c3.75,1.72,7.6,3.32,11.52,4.78l9-9C781.47,552,777.54,550.49,773.7,548.84Zm208.42-60.25c-11.69-25.45-33.3-46.47-60.46-60.59l-8.54,8.56c25.55,12.47,46,31.38,57.39,54.43-20.92,42.52-73,70.94-130.57,71h-.27a172.3,172.3,0,0,1-45.84-6.16l-9.25,9.23a182.22,182.22,0,0,0,55.09,8.44H840c63.08-.09,120.2-32.28,142.17-80.11l1.1-2.42ZM839.67,408.46h-.29c-63.07.11-120.19,32.3-142.17,80.13l-1.09,2.4,1.09,2.42c11.69,25.45,33.32,46.47,60.48,60.57l8.52-8.54C740.66,533,720.17,514,708.82,491c20.92-42.49,73-70.92,130.58-71h.27a172.32,172.32,0,0,1,45.85,6.16l9.23-9.23A182.16,182.16,0,0,0,839.67,408.46Zm63.16,11.23-9,9c4,1.34,8,2.84,11.8,4.47l8.7-8.69C910.61,422.72,906.75,421.12,902.83,419.69Z" transform="translate(-691.5 -343)"/><path class="cls-2" d="M878.15,444.37,870,452.55a49.3,49.3,0,0,1,8.14,8.13l8.18-8.17A59.07,59.07,0,0,0,878.15,444.37Zm-76.93,77L793,529.49a61.83,61.83,0,0,0,8.12,8.14l8.2-8.18A50.48,50.48,0,0,1,801.22,521.32Zm89.64-62.52-8.39,8.41a49,49,0,0,1-66.6,66.58l-8.39,8.41a60.47,60.47,0,0,0,83.38-83.4Zm-51.19-28.29a60.46,60.46,0,0,0-51.19,92.69l8.38-8.41a49,49,0,0,1,66.61-66.58l8.39-8.41A60.28,60.28,0,0,0,839.67,430.51Zm38.48,13.86L870,452.55a49.3,49.3,0,0,1,8.14,8.13l8.18-8.17A59.07,59.07,0,0,0,878.15,444.37Z" transform="translate(-691.5 -343)"/><path class="cls-2" d="M941.26,397.54l-26.91,26.91-8.7,8.69-19.36,19.37-8.18,8.17-68.75,68.77-8.2,8.18L785.5,553.31l-9,9L746.21,592.6a5.75,5.75,0,0,1-8.14,0,5.73,5.73,0,0,1,0-8.14L765,557.54l8.72-8.7,27.52-27.52L870,452.55l63.15-63.15a5.71,5.71,0,0,1,4.07-1.69,5.64,5.64,0,0,1,4.07,1.69A5.72,5.72,0,0,1,941.26,397.54Z" transform="translate(-691.5 -343)"/></svg>