<svg id="Layer_1" data-name="Layer 1" xmlns="http://www.w3.org/2000/svg" viewBox="0 0 162.86 156.7"><defs><style>.cls-1{fill:#fff;fill-opacity:0;}.cls-2,.cls-3,.cls-4,.cls-5{fill:#231f20;}.cls-2,.cls-3,.cls-4{stroke:#000;stroke-miterlimit:10;}.cls-2{stroke-width:5px;}.cls-4{stroke-width:3px;}</style></defs><rect class="cls-1" x="3.08" width="156.7" height="156.7"/><path class="cls-2" d="M156.92,76.05c-12.06-26.72-43.43-44.6-78.08-44.6h-.15c-34.57,0-65.88,18-77.93,44.6l-.6,1.33.6,1.34c12.06,26.72,43.44,44.61,78.09,44.61H79c34.57-.06,65.88-18,77.92-44.61l.61-1.34ZM79,116.92h-.15c-31.64,0-60.22-15.82-71.72-39.53,11.47-23.65,40-39.47,71.57-39.52h.15c31.63,0,60.22,15.82,71.71,39.52C139.08,101,110.56,116.85,79,116.92Z" transform="translate(2.58 -0.5)"/><path class="cls-3" d="M78.81,58.85A20,20,0,1,0,98.56,79.1v-.25h0a19.86,19.86,0,0,0-19.72-20Zm0,33.81a13.81,13.81,0,1,1,13.6-14v.21h0a13.73,13.73,0,0,1-13.6,13.82Z" transform="translate(2.58 -0.5)"/><path class="cls-4" d="M58,60.05a1,1,0,0,0-.47.48l-.46.9c.43-.54.88-1.08,1.35-1.61Zm0,0a1,1,0,0,0-.47.48l-.46.9c.43-.54.88-1.08,1.35-1.61Zm0,0a1,1,0,0,0-.47.48l-.46.9c.43-.54.88-1.08,1.35-1.61Zm0,0a1,1,0,0,0-.47.48l-.46.9c.43-.54.88-1.08,1.35-1.61Zm0,0a1,1,0,0,0-.47.48l-.46.9c.43-.54.88-1.08,1.35-1.61Zm0,0a1,1,0,0,0-.47.48l-.46.9c.43-.54.88-1.08,1.35-1.61Zm0,0a1,1,0,0,0-.47.48l-.46.9c.43-.54.88-1.08,1.35-1.61Zm0,0a1,1,0,0,0-.47.48l-.46.9c.43-.54.88-1.08,1.35-1.61Zm0,0a1,1,0,0,0-.47.48l-.46.9c.43-.54.88-1.08,1.35-1.61Zm0,0a1,1,0,0,0-.47.48l-.46.9c.43-.54.88-1.08,1.35-1.61Zm0,0a1,1,0,0,0-.47.48l-.46.9c.43-.54.88-1.08,1.35-1.61Zm0,0a1,1,0,0,0-.47.48l-.46.9c.43-.54.88-1.08,1.35-1.61Zm0,0a1,1,0,0,0-.47.48l-.46.9c.43-.54.88-1.08,1.35-1.61Zm0,0a1,1,0,0,0-.47.48l-.46.9c.43-.54.88-1.08,1.35-1.61Zm0,0a1,1,0,0,0-.47.48l-.46.9c.43-.54.88-1.08,1.35-1.61Zm0,0a1,1,0,0,0-.47.48l-.46.9c.43-.54.88-1.08,1.35-1.61Zm0,0a1,1,0,0,0-.47.48l-.46.9c.43-.54.88-1.08,1.35-1.61Zm0,0a1,1,0,0,0-.47.48l-.46.9c.43-.54.88-1.08,1.35-1.61Zm0,0a1,1,0,0,0-.47.48l-.46.9c.43-.54.88-1.08,1.35-1.61Zm0,0a1,1,0,0,0-.47.48l-.46.9c.43-.54.88-1.08,1.35-1.61Zm0,0a1,1,0,0,0-.47.48l-.46.9c.43-.54.88-1.08,1.35-1.61Zm0,0a1,1,0,0,0-.47.48l-.46.9c.43-.54.88-1.08,1.35-1.61Zm0,0a1,1,0,0,0-.47.48l-.46.9c.43-.54.88-1.08,1.35-1.61Zm0,0a1,1,0,0,0-.47.48l-.46.9c.43-.54.88-1.08,1.35-1.61Zm0,0a1,1,0,0,0-.47.48l-.46.9c.43-.54.88-1.08,1.35-1.61Zm0,0a1,1,0,0,0-.47.48l-.46.9c.43-.54.88-1.08,1.35-1.61Zm0,0a1,1,0,0,0-.47.48l-.46.9c.43-.54.88-1.08,1.35-1.61Zm0,0a1,1,0,0,0-.47.48l-.46.9c.43-.54.88-1.08,1.35-1.61Zm0,0a1,1,0,0,0-.47.48l-.46.9c.43-.54.88-1.08,1.35-1.61ZM78.81,44.56A33.11,33.11,0,0,0,60.13,50.3c-.57.38-1.13.78-1.68,1.21s-1.1.87-1.63,1.33l.74,1.48a1.11,1.11,0,0,0,.47.49l3.25,1.61a1,1,0,0,1,.41.36c.53-.43,1.06-.84,1.64-1.23s1.15-.75,1.74-1.07a27.46,27.46,0,0,1,37.53,10l.25.44a28.32,28.32,0,0,1-10.29,38.34A27.33,27.33,0,0,1,78.84,107,27.89,27.89,0,0,1,51.14,78.9h0A28.65,28.65,0,0,1,53.2,68.23a19.06,19.06,0,0,1,.86-1.9c.33-.62.67-1.29,1-1.92H55a1.08,1.08,0,0,1-1-.61l-1.63-3.27a1,1,0,0,0-.48-.48l-1-.54c-.38.54-.76,1.16-1.11,1.75s-.68,1.2-1,1.8A34.37,34.37,0,0,0,45,78.85c0,19,15.13,34.31,33.8,34.31a34.31,34.31,0,0,0,0-68.62h0Zm-21.23,16-.45.9c.43-.54.87-1.08,1.34-1.61l-.41.21a1,1,0,0,0-.5.5Zm.48-.48a1,1,0,0,0-.48.48l-.45.9c.43-.54.87-1.08,1.34-1.61Zm0,0a1,1,0,0,0-.48.48l-.45.9c.43-.54.87-1.08,1.34-1.61Zm0,0a1,1,0,0,0-.48.48l-.45.9c.43-.54.87-1.08,1.34-1.61Zm0,0a1,1,0,0,0-.48.48l-.45.9c.43-.54.87-1.08,1.34-1.61Zm0,0a1,1,0,0,0-.48.48l-.45.9c.43-.54.87-1.08,1.34-1.61Zm0,0a1,1,0,0,0-.48.48l-.45.9c.43-.54.87-1.08,1.34-1.61Zm0,0a1,1,0,0,0-.48.48l-.45.9c.43-.54.87-1.08,1.34-1.61Zm0,0a1,1,0,0,0-.48.48l-.45.9c.43-.54.87-1.08,1.34-1.61Zm0,0a1,1,0,0,0-.48.48l-.45.9c.43-.54.87-1.08,1.34-1.61Zm0,0a1,1,0,0,0-.48.48l-.45.9c.43-.54.87-1.08,1.34-1.61Zm0,0a1,1,0,0,0-.48.48l-.45.9c.43-.54.87-1.08,1.34-1.61Zm0,0a1,1,0,0,0-.48.48l-.45.9c.43-.54.87-1.08,1.34-1.61Zm0,0a1,1,0,0,0-.48.48l-.45.9c.43-.54.87-1.08,1.34-1.61Zm0,0a1,1,0,0,0-.48.48l-.45.9c.43-.54.87-1.08,1.34-1.61Zm0,0a1,1,0,0,0-.48.48l-.45.9c.43-.54.87-1.08,1.34-1.61Zm0,0a1,1,0,0,0-.48.48l-.45.9c.43-.54.87-1.08,1.34-1.61Zm0,0a1,1,0,0,0-.48.48l-.45.9c.43-.54.87-1.08,1.34-1.61Zm0,0a1,1,0,0,0-.48.48l-.45.9c.43-.54.87-1.08,1.34-1.61Zm0,0a1,1,0,0,0-.48.48l-.45.9c.43-.54.87-1.08,1.34-1.61Zm0,0a1,1,0,0,0-.48.48l-.45.9c.43-.54.87-1.08,1.34-1.61Zm0,0a1,1,0,0,0-.48.48l-.45.9c.43-.54.87-1.08,1.34-1.61Zm0,0a1,1,0,0,0-.48.48l-.45.9c.43-.54.87-1.08,1.34-1.61Zm0,0a1,1,0,0,0-.48.48l-.45.9c.43-.54.87-1.08,1.34-1.61Zm0,0a1,1,0,0,0-.48.48l-.45.9c.43-.54.87-1.08,1.34-1.61Zm0,0a1,1,0,0,0-.48.48l-.45.9c.43-.54.87-1.08,1.34-1.61Zm0,0a1,1,0,0,0-.48.48l-.45.9c.43-.54.87-1.08,1.34-1.61Zm0,0a1,1,0,0,0-.48.48l-.45.9c.43-.54.87-1.08,1.34-1.61Zm0,0a1,1,0,0,0-.48.48l-.45.9c.43-.54.87-1.08,1.34-1.61Z" transform="translate(2.58 -0.5)"/><path class="cls-5" d="M65.07,54.47a5.19,5.19,0,0,0-2-1.72l-2.35-1.2-.63-1.25-.58-1.13a5.11,5.11,0,0,0-6.8-2.4l-.08,0a5.22,5.22,0,0,0-2.33,2.36l-1.18,2.39-2.35,1.2a5.24,5.24,0,0,0,0,9.33l2,1,.37.2,1.19,2.39a5,5,0,0,0,4.6,2.88,5.09,5.09,0,0,0,4.61-2.88l1.18-2.39,2.35-1.21a5.27,5.27,0,0,0,2.3-7,5,5,0,0,0-.34-.59Zm-3.79,3.91-2.83,1.47-.42.21a1.11,1.11,0,0,0-.47.49l-.46.9-1.17,2.4a1,1,0,0,1-.87.6H55a1.08,1.08,0,0,1-1-.61l-1.63-3.27a1,1,0,0,0-.48-.48l-1-.54-2.24-1.13A1.1,1.1,0,0,1,48.08,57h0a1,1,0,0,1,.53-.53l3.25-1.62a1.08,1.08,0,0,0,.48-.49L54,51a1.07,1.07,0,0,1,1.41-.52h0a1.12,1.12,0,0,1,.5.51l.89,1.83.74,1.48a1.11,1.11,0,0,0,.47.49l3.25,1.62a.89.89,0,0,1,.41.36,1.08,1.08,0,0,1-.21,1.5A.44.44,0,0,1,61.28,58.38Z" transform="translate(2.58 -0.5)"/></svg>