<svg id="Layer_1" data-name="Layer 1" xmlns="http://www.w3.org/2000/svg" viewBox="0 0 214 214"><defs><style>.cls-1,.cls-2{fill:#fff;}.cls-1{opacity:0;}</style></defs><rect class="cls-1" width="214" height="214"/><path class="cls-2" d="M853.07,571.85a107.07,107.07,0,0,1-10.45-213.62,8.25,8.25,0,0,1,6.45,14.23,65.37,65.37,0,0,0-20.81,48,66,66,0,0,0,117.11,41.83A8.25,8.25,0,0,1,960,467.78,106.46,106.46,0,0,1,853.07,571.85ZM822.68,379.4A90.59,90.59,0,1,0,940.31,489,82.56,82.56,0,0,1,822.68,379.4Z" transform="translate(-746 -358)"/></svg>