<svg id="Layer_1" data-name="Layer 1" xmlns="http://www.w3.org/2000/svg" viewBox="0 0 56.43 46.92"><defs><style>.cls-1{fill:#fff;}</style></defs><path class="cls-1" d="M325.17,415.74a4.53,4.53,0,0,0-1.14-1.68v-9.69a7.45,7.45,0,0,0-7.22-6.83H276.12a6.83,6.83,0,0,0-6.83,6.83v33.26a6.83,6.83,0,0,0,6.83,6.83h40.69a7.45,7.45,0,0,0,7.22-6.83v-9.69a4.53,4.53,0,0,0,1.14-1.68,14.41,14.41,0,0,0,.54-5v-.56A14.41,14.41,0,0,0,325.17,415.74Zm-4.6.5c1.18,0,1.32.38,1.45.72a12.36,12.36,0,0,1,.32,3.75v.58A12.36,12.36,0,0,1,322,425c-.13.34-.27.72-1.45.72H304.31a4.76,4.76,0,1,1,0-9.52Zm-3.76,24.85H276.12a3.46,3.46,0,0,1-3.46-3.46V404.37a3.46,3.46,0,0,1,3.46-3.46h40.69a3.46,3.46,0,0,1,3.46,3.46v8.5h-16a8.13,8.13,0,1,0,0,16.26h16v8.5A3.46,3.46,0,0,1,316.81,441.09Z" transform="translate(-269.29 -397.54)"/><path class="cls-1" d="M302.57,421a2.18,2.18,0,1,0,2.17-2.18A2.18,2.18,0,0,0,302.57,421Z" transform="translate(-269.29 -397.54)"/></svg>