<svg id="Layer_1" data-name="Layer 1" xmlns="http://www.w3.org/2000/svg" viewBox="0 0 8.65 9.52"><defs><style>.cls-1{fill:#212121;}.cls-2{fill-rule:evenodd;}</style></defs><path class="cls-1" d="M6.3,11.32a.56.56,0,0,0,0,1.12h7.56a.56.56,0,0,0,0-1.12Z" transform="translate(-5.76 -2.92)"/><path class="cls-1" d="M9.54,6.28a.55.55,0,0,1,.54-.56h3.78a.56.56,0,0,1,0,1.12H10.08A.55.55,0,0,1,9.54,6.28Z" transform="translate(-5.76 -2.92)"/><path class="cls-1" d="M5.76,3.48a.55.55,0,0,1,.54-.56h7.56a.56.56,0,0,1,0,1.12H6.3A.55.55,0,0,1,5.76,3.48Z" transform="translate(-5.76 -2.92)"/><path class="cls-1" d="M9.54,9.08a.55.55,0,0,1,.54-.56h3.78a.56.56,0,0,1,0,1.12H10.08A.55.55,0,0,1,9.54,9.08Z" transform="translate(-5.76 -2.92)"/><polygon class="cls-2" points="0.17 4.7 2.56 7.54 2.59 1.93 0.17 4.7"/></svg>