<?xml version="1.0" encoding="UTF-8"?>
<svg xmlns="http://www.w3.org/2000/svg" id="Layer_1" data-name="Layer 1" viewBox="0 0 24 24">
  <path d="m8.5,3h-3c-1.378,0-2.5,1.122-2.5,2.5v3c0,1.378,1.122,2.5,2.5,2.5h3c1.378,0,2.5-1.122,2.5-2.5v-3c0-1.378-1.122-2.5-2.5-2.5Zm1.5,5.5c0,.827-.673,1.5-1.5,1.5h-3c-.827,0-1.5-.673-1.5-1.5v-3c0-.827.673-1.5,1.5-1.5h3c.827,0,1.5.673,1.5,1.5v3Zm5.5,2.5h3c1.378,0,2.5-1.122,2.5-2.5v-3c0-1.378-1.122-2.5-2.5-2.5h-3c-1.378,0-2.5,1.122-2.5,2.5v3c0,1.378,1.122,2.5,2.5,2.5Zm-1.5-5.5c0-.827.673-1.5,1.5-1.5h3c.827,0,1.5.673,1.5,1.5v3c0,.827-.673,1.5-1.5,1.5h-3c-.827,0-1.5-.673-1.5-1.5v-3Zm-5.5,7.5h-3c-1.378,0-2.5,1.122-2.5,2.5v3c0,1.378,1.122,2.5,2.5,2.5h3c1.378,0,2.5-1.122,2.5-2.5v-3c0-1.378-1.122-2.5-2.5-2.5Zm1.5,5.5c0,.827-.673,1.5-1.5,1.5h-3c-.827,0-1.5-.673-1.5-1.5v-3c0-.827.673-1.5,1.5-1.5h3c.827,0,1.5.673,1.5,1.5v3Zm-2.5-3.5h-1c-.827,0-1.5.673-1.5,1.5v1c0,.827.673,1.5,1.5,1.5h1c.827,0,1.5-.673,1.5-1.5v-1c0-.827-.673-1.5-1.5-1.5Zm.5,2.5c0,.276-.224.5-.5.5h-1c-.276,0-.5-.224-.5-.5v-1c0-.276.224-.5.5-.5h1c.276,0,.5.224.5.5v1Zm-.5-12.5h-1c-.827,0-1.5.673-1.5,1.5v1c0,.827.673,1.5,1.5,1.5h1c.827,0,1.5-.673,1.5-1.5v-1c0-.827-.673-1.5-1.5-1.5Zm.5,2.5c0,.276-.224.5-.5.5h-1c-.276,0-.5-.224-.5-.5v-1c0-.276.224-.5.5-.5h1c.276,0,.5.224.5.5v1Zm8.5,1.5h1c.827,0,1.5-.673,1.5-1.5v-1c0-.827-.673-1.5-1.5-1.5h-1c-.827,0-1.5.673-1.5,1.5v1c0,.827.673,1.5,1.5,1.5Zm-.5-2.5c0-.276.224-.5.5-.5h1c.276,0,.5.224.5.5v1c0,.276-.224.5-.5.5h-1c-.276,0-.5-.224-.5-.5v-1Zm1.5,12.5c.827,0,1.5-.673,1.5-1.5v-1.5h.5c.827,0,1.5-.673,1.5-1.5s-.673-1.5-1.5-1.5-1.5.673-1.5,1.5v.5h-2v-.5c0-.827-.673-1.5-1.5-1.5s-1.5.673-1.5,1.5.673,1.5,1.5,1.5h.5v2h-.5c-.827,0-1.5.673-1.5,1.5s.673,1.5,1.5,1.5,1.5-.673,1.5-1.5v-.5h1.5Zm1.5-4.5c0-.276.224-.5.5-.5s.5.224.5.5-.224.5-.5.5h-.5v-.5Zm-1,3c0,.276-.224.5-.5.5h-1.5v-2h2v1.5Zm-4-3c0-.276.224-.5.5-.5s.5.224.5.5v.5h-.5c-.276,0-.5-.224-.5-.5Zm1,5c0,.276-.224.5-.5.5s-.5-.224-.5-.5.224-.5.5-.5h.5v.5ZM0,6.5v-2C0,2.019,2.019,0,4.5,0h2c.276,0,.5.224.5.5s-.224.5-.5.5h-2c-1.93,0-3.5,1.57-3.5,3.5v2c0,.276-.224.5-.5.5s-.5-.224-.5-.5Zm7,17c0,.276-.224.5-.5.5h-2c-2.481,0-4.5-2.019-4.5-4.5v-2c0-.276.224-.5.5-.5s.5.224.5.5v2c0,1.93,1.57,3.5,3.5,3.5h2c.276,0,.5.224.5.5Zm17-6v2c0,2.481-2.019,4.5-4.5,4.5h-2c-.276,0-.5-.224-.5-.5s.224-.5.5-.5h2c1.93,0,3.5-1.57,3.5-3.5v-2c0-.276.224-.5.5-.5s.5.224.5.5Zm0-13v2c0,.276-.224.5-.5.5s-.5-.224-.5-.5v-2c0-1.93-1.57-3.5-3.5-3.5h-2c-.276,0-.5-.224-.5-.5s.224-.5.5-.5h2c2.481,0,4.5,2.019,4.5,4.5Z"/>
</svg>
