<svg id="Layer_1" data-name="Layer 1" xmlns="http://www.w3.org/2000/svg" viewBox="0 0 121.41 100"><defs><style>.cls-1{fill:#b8b5b1;}.cls-2{fill:#254c82;}.cls-3{fill:#231f20;opacity:0.71;}.cls-3,.cls-4{stroke:#69a2d7;stroke-miterlimit:10;stroke-width:0.75px;}.cls-4{fill:#69a2d7;}</style></defs><g id="Shape_1" data-name="Shape 1"><path class="cls-1" d="M473.15,587c-11-66.57-94.22-53.69-95.7,0,4.78,2.6,7.82,4.18,7.82,4.18s-2.55,1.59-7.86,5.14c9.58,65.26,91.38,55.78,95.74-.08-5.2-3.33-8-5.09-8-5.09S467.53,589.9,473.15,587Zm-40.93,23.25-7.8-14-7.95,14-6-.43,11.29-19.88-10.19-17.19,6.13-.57L425,584.87l7.27-12.16,5.72.14-9.48,16.88L438.91,610Z" transform="translate(-377.41 -541.73)"/></g><g id="Shape_1-2" data-name="Shape 1-2"><path class="cls-2" d="M469.27,584.38c-14.91-59.15-83.26-43.15-87.94,0,9.48,5.58,11.63,6.89,11.63,6.89L381.29,599c10.18,56.87,83.92,45.94,88-.07-7.44-4.87-11.83-7.71-11.83-7.71S467.45,585.38,469.27,584.38Zm-37,25.9-7.8-14-7.95,14-6-.43L421.77,590l-10.19-17.16,6.13-.57L425,585l7.27-12.16,5.72.14-9.48,16.88,10.45,20.3Z" transform="translate(-377.41 -541.73)"/></g><circle class="cls-3" cx="84.16" cy="61.42" r="36.88"/><path class="cls-4" d="M465.52,619.08V627h-7.89v-7.88h7.89m.41-.41h-8.71v8.71h8.71v-8.71Z" transform="translate(-377.41 -541.73)"/><path class="cls-4" d="M461.49,580.08q7.42,0,11.83,3.89a11.74,11.74,0,0,1,4.39,9,10.07,10.07,0,0,1-1.61,5.41q-1.62,2.55-6.9,6.94a12.93,12.93,0,0,0-3.39,3.65,12,12,0,0,0-.58,5h-7.86c0-1.13,0-1.81,0-2.06a13.78,13.78,0,0,1,1.26-6.26,19.12,19.12,0,0,1,5-5.53,36.63,36.63,0,0,0,4.52-4.05,5.37,5.37,0,0,0,1.15-3.32,5.6,5.6,0,0,0-2-4.31,7.87,7.87,0,0,0-5.43-1.8,8.22,8.22,0,0,0-5.5,1.87,10,10,0,0,0-3,5.72l-7.92-1a13.15,13.15,0,0,1,4.66-9.34q4.34-3.84,11.41-3.84m0-.41c-4.79,0-8.72,1.33-11.69,3.94a13.63,13.63,0,0,0-4.82,9.62v.4l.39,0,7.92,1,.38,0,.08-.37a9.61,9.61,0,0,1,2.89-5.48,7.8,7.8,0,0,1,5.21-1.78,7.55,7.55,0,0,1,5.15,1.69,5.14,5.14,0,0,1,1.87,4,5,5,0,0,1-1.05,3.07,41.51,41.51,0,0,1-4.45,3.95,19.91,19.91,0,0,0-5.14,5.66,14.09,14.09,0,0,0-1.31,6.45c0,.26,0,1,0,2.07v.41h8.67v-.42a11.48,11.48,0,0,1,.58-4.76,13.28,13.28,0,0,1,3.29-3.52c3.54-2.94,5.89-5.31,7-7a10.4,10.4,0,0,0,1.68-5.63,12.21,12.21,0,0,0-4.54-9.35c-3-2.66-7.06-4-12.09-4Z" transform="translate(-377.41 -541.73)"/></svg>