<svg id="Layer_1" data-name="Layer 1" xmlns="http://www.w3.org/2000/svg" viewBox="0 0 25 25"><defs><style>.cls-1,.cls-2{fill:#fff;}.cls-2,.cls-3,.cls-4{stroke:#fff;}.cls-2{stroke-miterlimit:10;}.cls-2,.cls-3{stroke-width:2px;}.cls-3,.cls-4{fill:none;stroke-linecap:round;stroke-linejoin:round;}.cls-4{stroke-width:1.75px;}</style></defs><path class="cls-1" d="M24.66,3.39,19,11,16,9l4.11-7.86A2.71,2.71,0,0,1,22.39,0a2.88,2.88,0,0,1,1.45.38A2.1,2.1,0,0,1,24.66,3.39Z"/><path class="cls-2" d="M19.2,16.55h0l-8.36-6a.07.07,0,0,1,0-.1A5.31,5.31,0,0,1,16,9l3,2C20.26,12.67,20.06,14.32,19.2,16.55Z"/><path class="cls-3" d="M19.19,16.55c0,.09-.06.18-.1.27A30.07,30.07,0,0,1,14.54,24a38.05,38.05,0,0,1-4-1.42,20.05,20.05,0,0,1-4.67-2.65h0C3.18,17.79,3.18,16,3.18,16S7.72,14.91,10,11.5a6.84,6.84,0,0,1,.77-1Z"/><path class="cls-3" d="M5.89,19.93a7.67,7.67,0,0,0,3-1.61"/><path class="cls-3" d="M10.56,22.58a7.19,7.19,0,0,0,2.85-3.13"/><rect class="cls-3" x="2.04" y="12.63" transform="matrix(1, -0.07, 0.07, 1, -0.84, 0.16)"/><rect class="cls-4" x="4.45" y="10.22" transform="translate(-5.93 6.14) rotate(-45)"/></svg>