<svg xmlns="http://www.w3.org/2000/svg" viewBox="0 0 1000 1000"><defs><style>.cls-1{fill:#0c7b93;}.cls-2{fill:#83b9ff;}.cls-3{fill:#10151b;}</style></defs><g id="_2" data-name="2"><path class="cls-1" d="M894.19,369.07a511.84,511.84,0,0,1-3.64,60.69c0,.11,0,.24,0,.36-.19,1.61-.39,3.23-.6,4.84s-.44,3.32-.66,5l-.06.37c-.19,1.37-.38,2.74-.59,4.12-.09.63-.19,1.28-.29,1.91-.2,1.36-.41,2.72-.64,4.08a.39.39,0,0,1,0,.15l-.09.56q-.43,2.72-.89,5.41c0,.22-.07.46-.12.68q-.52,3.07-1.1,6.13-1.12,6.12-2.39,12.2c0,.2-.08.38-.13.58-.39,1.85-.78,3.73-1.19,5.58,0,.05,0,.09,0,.14q-.23,1.07-.48,2.13c-.31,1.41-.63,2.83-1,4.26-.12.53-.25,1.07-.38,1.61-.3,1.31-.61,2.6-.94,3.89-.18.78-.37,1.55-.57,2.33-.3,1.26-.63,2.5-1,3.74-.2.81-.41,1.62-.61,2.41a.58.58,0,0,0,0,.16c-.46,1.78-.94,3.57-1.43,5.35-.56,2.1-1.14,4.18-1.74,6.28-.38,1.34-.77,2.68-1.18,4q-.09.36-.21.72c-.22.8-.46,1.6-.7,2.39l-.19.65c-.37,1.24-.75,2.49-1.14,3.72-.31,1-.62,2-.95,3l-.12.39c-.19.63-.4,1.27-.6,1.9,0,.14-.09.28-.13.42q-.39,1.25-.81,2.49l0,.11c-.48,1.48-1,2.95-1.45,4.42-.08.26-.17.51-.27.77s-.23.69-.35,1c-.46,1.38-.93,2.76-1.41,4.13-.08.22-.14.42-.22.64h0a.19.19,0,0,1,0,.09s0,0,0,0c-.7,2-1.43,4.07-2.15,6.09,0,0,0,.09-.05.13C802.34,706.86,672.84,833.66,522.62,865.64L0,976.88V141.93L522.62,30.69c150.22-32,279.72,39.69,338.94,170.14l.05.11c.72,1.71,1.45,3.43,2.15,5.17l0,0a.19.19,0,0,1,0,.09h0c.08.18.14.35.22.54q.72,1.75,1.41,3.54c.12.28.24.58.35.87s.19.44.27.66c.49,1.25,1,2.53,1.45,3.8l0,.09q.42,1.08.81,2.16l.13.36c.2.54.41,1.1.6,1.64l.12.34c.33.87.64,1.75.95,2.64.39,1.06.77,2.14,1.14,3.23l.19.57c.24.69.48,1.39.7,2.09q.12.31.21.63c.41,1.17.8,2.35,1.18,3.54q.9,2.75,1.74,5.52c.49,1.57,1,3.16,1.43,4.75a.34.34,0,0,0,0,.14c.2.71.41,1.42.61,2.14.32,1.11.65,2.22,1,3.34.2.69.39,1.39.57,2.09.33,1.16.64,2.32.94,3.49.13.48.26,1,.38,1.46.34,1.27.66,2.55,1,3.84q.25,1,.48,1.92c0,.05,0,.08,0,.13.41,1.68.8,3.38,1.19,5.07.05.18.08.35.13.53q1.26,5.53,2.39,11.17c.38,1.89.75,3.77,1.1,5.67.05.2.08.42.12.62.3,1.68.6,3.35.89,5l.09.52a.32.32,0,0,1,0,.14c.23,1.27.44,2.54.64,3.8.1.6.2,1.2.29,1.79.21,1.3.4,2.58.59,3.88,0,.1,0,.23.06.33l.66,4.69c.21,1.52.41,3.05.6,4.58,0,.11,0,.23,0,.34A473.85,473.85,0,0,1,894.19,369.07Z"/><path class="cls-2" d="M1000,559.41a440.22,440.22,0,0,1-4.08,59.91c0,.11,0,.24,0,.35-.22,1.58-.44,3.15-.68,4.71s-.49,3.23-.74,4.83l-.06.35c-.21,1.34-.43,2.66-.66,4-.1.61-.21,1.24-.33,1.85-.22,1.31-.46,2.62-.71,3.94a.39.39,0,0,1,0,.15c0,.17-.07.36-.11.53-.32,1.75-.66,3.49-1,5.23,0,.21-.08.44-.13.65q-.6,3-1.24,5.9-1.25,5.87-2.67,11.69c0,.18-.09.36-.14.55-.44,1.77-.88,3.56-1.34,5.32l0,.14-.54,2c-.35,1.35-.71,2.7-1.09,4.05-.14.52-.28,1-.43,1.54-.33,1.24-.68,2.46-1,3.69-.21.74-.42,1.47-.64,2.21-.34,1.19-.7,2.36-1.07,3.54-.22.76-.46,1.52-.68,2.27a.44.44,0,0,0,0,.15c-.52,1.69-1,3.38-1.6,5-.63,2-1.28,3.94-1.95,5.9-.43,1.27-.87,2.53-1.31,3.79-.08.23-.15.45-.24.68-.25.75-.51,1.5-.79,2.23-.06.2-.14.42-.21.62-.42,1.16-.84,2.32-1.28,3.47-.34.95-.68,1.9-1.06,2.84l-.13.36c-.21.59-.45,1.19-.67,1.78l-.15.38c-.29.78-.59,1.55-.9,2.33a.42.42,0,0,1,0,.1c-.53,1.37-1.07,2.75-1.62,4.11-.09.24-.19.48-.3.71s-.25.64-.39.95c-.51,1.29-1,2.57-1.57,3.84-.09.2-.17.39-.25.59h0s0,0,0,.09,0,0,0,0c-.79,1.88-1.6,3.76-2.42,5.62a.69.69,0,0,1,0,.13c-66.22,143-211,242.28-379,242.28H0V141.93H584.46c168,0,312.83,99.24,379,242.29a.69.69,0,0,1,0,.13q1.23,2.79,2.42,5.62v0s0,.06,0,.09h0c.08.2.16.39.25.59.53,1.27,1.06,2.55,1.57,3.83.14.32.26.64.39,1s.21.48.3.72q.83,2,1.62,4.11a.42.42,0,0,1,0,.1c.31.77.61,1.55.9,2.32l.15.39c.22.59.46,1.19.67,1.78,0,.12.09.23.13.36.38.94.72,1.89,1.06,2.84.44,1.15.86,2.31,1.28,3.47.07.2.15.41.21.61.28.74.54,1.49.79,2.24.09.23.16.45.24.68.44,1.26.88,2.52,1.31,3.78.67,2,1.32,3.93,1.95,5.9.55,1.68,1.08,3.37,1.6,5.05a.44.44,0,0,0,0,.15c.22.75.46,1.52.68,2.28.37,1.17.73,2.35,1.07,3.54.22.73.43,1.47.64,2.21.36,1.22.71,2.45,1,3.69.15.51.29,1,.43,1.53.38,1.35.74,2.7,1.09,4l.54,2,0,.14c.46,1.76.9,3.55,1.34,5.32l.14.55q1.43,5.82,2.67,11.69c.43,2,.84,3.92,1.24,5.9,0,.21.09.44.13.65.33,1.74.67,3.47,1,5.22,0,.18.07.37.11.54a.39.39,0,0,1,0,.15c.25,1.31.49,2.63.71,3.94.12.61.23,1.24.33,1.85.23,1.34.45,2.66.66,4l.06.35c.25,1.6.5,3.21.74,4.82s.46,3.14.68,4.72c0,.11,0,.23,0,.35A440,440,0,0,1,1000,559.41Z"/><polygon class="cls-3" points="250 496.91 312.5 559.41 250 621.91 250 871.91 125 871.91 125 246.91 250 246.91 250 496.91"/><polygon class="cls-3" points="500 379.41 500 871.91 375 871.91 375 621.91 312.5 559.41 375 496.91 375 379.41 500 379.41"/><path class="cls-3" d="M747.41,519.47a39.94,39.94,0,1,0,39.94,39.94A39.92,39.92,0,0,0,747.41,519.47Zm0,59.91a20,20,0,1,1,20-20A20,20,0,0,1,747.41,579.38Z"/><path class="cls-3" d="M747.41,619.32H869.26C841.32,763.25,714.6,871.91,562.5,871.91H515.63V363.78H375V246.91H562.5c152.1,0,278.82,108.66,306.76,252.59H747.41a59.91,59.91,0,1,0,0,119.82Z"/></g></svg>