<svg id="Layer_1" data-name="Layer 1" xmlns="http://www.w3.org/2000/svg" viewBox="0 0 75.37 100"><defs><style>.cls-1{fill:#343434;}.cls-2{fill:#8c8c8c;}.cls-3{fill:#3d3d3c;}.cls-4{fill:#161616;}.cls-5{fill:#3a3a39;}.cls-6{fill:#231f20;opacity:0.71;}.cls-6,.cls-7{stroke:#69a2d7;stroke-miterlimit:10;stroke-width:0.75px;}.cls-7{fill:#69a2d7;}</style></defs><g id="Layer_1-2" data-name="Layer_1"><g id="_1421394342400" data-name=" 1421394342400"><polygon class="cls-1" points="30.69 0 30.02 2.28 30.02 68.4 30.69 69.07 61.39 50.93 30.69 0"/><polygon class="cls-2" points="30.69 0 0 50.93 30.69 69.07 30.69 36.98 30.69 0"/><polygon class="cls-3" points="30.69 74.88 30.32 75.34 30.32 98.9 30.69 100 61.41 56.75 30.69 74.88"/><polygon class="cls-2" points="30.69 100 30.69 74.88 0 56.75 30.69 100"/><polygon class="cls-4" points="30.69 69.07 61.39 50.93 30.69 36.98 30.69 69.07"/><polygon class="cls-5" points="0 50.93 30.69 69.07 30.69 36.98 0 50.93"/></g></g><circle class="cls-6" cx="48.48" cy="56.75" r="26.51"/><path class="cls-7" d="M334.8,438.7v5.67h-5.67V438.7h5.67m.3-.29h-6.26v6.26h6.26v-6.26Z" transform="translate(-283.49 -370.5)"/><path class="cls-7" d="M331.91,410.66a12.34,12.34,0,0,1,8.5,2.8,8.44,8.44,0,0,1,3.16,6.5,7.17,7.17,0,0,1-1.16,3.89,25.65,25.65,0,0,1-5,5,9.43,9.43,0,0,0-2.44,2.63,8.61,8.61,0,0,0-.41,3.55H329c0-.81,0-1.3,0-1.48a9.84,9.84,0,0,1,.9-4.5,13.91,13.91,0,0,1,3.62-4,25.24,25.24,0,0,0,3.25-2.91,3.83,3.83,0,0,0,.83-2.38,4,4,0,0,0-1.44-3.11,5.66,5.66,0,0,0-3.9-1.29,5.86,5.86,0,0,0-3.95,1.35,7.14,7.14,0,0,0-2.19,4.11l-5.7-.71a9.5,9.5,0,0,1,3.35-6.71,11.94,11.94,0,0,1,8.21-2.76m0-.3a12.27,12.27,0,0,0-8.4,2.84,9.75,9.75,0,0,0-3.47,6.92v.28l.28,0,5.69.71.27,0,.06-.26a6.93,6.93,0,0,1,2.08-3.95,5.69,5.69,0,0,1,3.75-1.28,5.41,5.41,0,0,1,3.7,1.22,3.73,3.73,0,0,1,1.35,2.88,3.61,3.61,0,0,1-.76,2.21,29.89,29.89,0,0,1-3.2,2.84,14.36,14.36,0,0,0-3.7,4.07,10.3,10.3,0,0,0-.94,4.64c0,.19,0,.7,0,1.49v.29h6.24V435a8.29,8.29,0,0,1,.41-3.43,9.68,9.68,0,0,1,2.37-2.52,26,26,0,0,0,5-5.07,7.43,7.43,0,0,0,1.2-4,8.76,8.76,0,0,0-3.26-6.73,12.7,12.7,0,0,0-8.7-2.87Z" transform="translate(-283.49 -370.5)"/></svg>