<svg id="Layer_1" data-name="Layer 1" xmlns="http://www.w3.org/2000/svg" viewBox="0 0 132.05 132.05"><defs><style>.cls-1,.cls-2{fill:#69a3d8;}.cls-2{stroke:#69a3d8;stroke-miterlimit:10;}</style></defs><path class="cls-1" d="M297.74,481.14a66,66,0,1,1,66-66A66.1,66.1,0,0,1,297.74,481.14Zm0-121.9a55.88,55.88,0,1,0,55.88,55.87A55.94,55.94,0,0,0,297.74,359.24Z" transform="translate(-231.72 -349.09)"/><path class="cls-2" d="M296.48,376.39q12.84,0,20.44,6.72t7.59,15.63a17.21,17.21,0,0,1-2.79,9.35q-2.79,4.4-11.92,12-4.73,3.92-5.86,6.31c-.76,1.6-1.11,4.44-1,8.55H289.36c0-1.95-.05-3.13-.05-3.56a23.74,23.74,0,0,1,2.18-10.83q2.17-4.24,8.7-9.55t7.81-7a9.27,9.27,0,0,0,2-5.73,9.69,9.69,0,0,0-3.47-7.46q-3.48-3.11-9.38-3.11a14.2,14.2,0,0,0-9.5,3.24q-3.83,3.24-5.25,9.88l-13.7-1.7A22.74,22.74,0,0,1,276.75,383q7.51-6.64,19.73-6.64m0-.71c-8.28,0-15.08,2.29-20.2,6.81a23.54,23.54,0,0,0-8.34,16.63l0,.68.67.08,13.7,1.7.65.08.14-.64c.91-4.25,2.6-7.44,5-9.48a13.52,13.52,0,0,1,9-3.07c3.73,0,6.73,1,8.9,2.92a8.91,8.91,0,0,1,3.24,6.93,8.68,8.68,0,0,1-1.82,5.3c-.81,1-3.4,3.34-7.69,6.83s-7.4,6.88-8.89,9.79a24.42,24.42,0,0,0-2.26,11.15c0,.45,0,1.68.06,3.57v.71h15v-.73c-.07-4,.25-6.74,1-8.23s2.63-3.53,5.68-6.07c6.12-5.09,10.18-9.18,12.07-12.17a18,18,0,0,0,2.9-9.73c0-6.13-2.64-11.57-7.84-16.17s-12.21-6.89-20.91-6.89Z" transform="translate(-231.72 -349.09)"/><path class="cls-2" d="M303.05,442.52v13.63H289.42V442.52h13.63m.72-.71H288.71v15.06h15.06V441.81Z" transform="translate(-231.72 -349.09)"/></svg>