<svg id="Layer_1" data-name="Layer 1" xmlns="http://www.w3.org/2000/svg" viewBox="0 0 258.4 213.85"><defs><style>.cls-1{fill:#0087ca;}.cls-2{fill:#fff;}</style></defs><path class="cls-1" d="M291.26,135.39c0,55.37-57.84,100.24-129.2,100.24a160.46,160.46,0,0,1-54.55-9.34C97.11,222.53,50.09,249,50.09,249S68,204.34,63.27,200c-19-17.44-30.41-40-30.41-64.6C32.86,80,90.71,35.15,162.06,35.15S291.26,80,291.26,135.39Z" transform="translate(-32.86 -35.15)"/><path class="cls-2" d="M158.56,101.91a14.83,14.83,0,0,0,10.76-4.46,15.28,15.28,0,0,0,0-21.6,15.12,15.12,0,0,0-10.76-4.3A14.38,14.38,0,0,0,147.89,76a14.65,14.65,0,0,0-4.47,10.75,14.4,14.4,0,0,0,4.47,10.68A14.56,14.56,0,0,0,158.56,101.91Z" transform="translate(-32.86 -35.15)"/><path class="cls-2" d="M191,174.57H181s-4.88.07-5.05-4.45c-.48-6-.87-10.86-.92-12.27l-.58-14.57c-.06-.88-.08-2-.08-3.47q0-4.8-.08-7.53c-.06-.66-.09-1.41-.09-2.23l.25-6.21V109.28q-21.51,10.17-38.14,12.91l-2.24,10.34a31.75,31.75,0,0,0,6,.58,19.64,19.64,0,0,0,7.45-1.41l.33,20.77c0,5.08.14,11.53.27,18,.1,4.19-4.09,4.12-4.09,4.12H133.1v22.28H191Z" transform="translate(-32.86 -35.15)"/></svg>