<svg id="Layer_1" data-name="Layer 1" xmlns="http://www.w3.org/2000/svg" viewBox="0 0 222.71 222.28"><defs><style>.cls-1{fill:#0687c9;}.cls-2{fill:#fff;}</style></defs><ellipse class="cls-1" cx="111.36" cy="111.14" rx="111.36" ry="111.14"/><path class="cls-2" d="M413.13,98.81a14.26,14.26,0,0,0,10.34-4.29,14.68,14.68,0,0,0,0-20.76,14.53,14.53,0,0,0-10.34-4.14,13.81,13.81,0,0,0-10.26,4.3,14.1,14.1,0,0,0-4.29,10.34,13.84,13.84,0,0,0,4.29,10.26A14,14,0,0,0,413.13,98.81Z" transform="translate(-305.14 -18.72)"/><path class="cls-2" d="M444.34,168.67H434.7s-4.69.07-4.86-4.29c-.46-5.73-.83-10.44-.88-11.79l-.55-14c-.06-.85-.08-2-.08-3.34q0-4.62-.08-7.24c-.06-.64-.08-1.35-.08-2.15l.24-6v-14q-20.68,9.8-36.67,12.41l-2.15,10a30.06,30.06,0,0,0,5.73.55,18.87,18.87,0,0,0,7.15-1.35l.32,20c0,4.88.13,11.08.26,17.29.1,4-3.93,4-3.93,4H388.65v21.41h55.69Z" transform="translate(-305.14 -18.72)"/></svg>