<svg id="Layer_1" data-name="Layer 1" xmlns="http://www.w3.org/2000/svg" viewBox="0 0 262.02 262.02"><defs><style>.cls-1{fill:#44ab55;}.cls-2{fill:#fff;}</style></defs><path class="cls-1" d="M359.77,561.56a130.65,130.65,0,1,1,51-10.3A130.12,130.12,0,0,1,359.77,561.56Z" transform="translate(-228.76 -299.54)"/><path class="cls-2" d="M291.19,447.6a492.56,492.56,0,0,0,28.72,41.5,11.74,11.74,0,0,0,17.56,1.2c29.91-28.38,57.66-64.19,90.9-113.76a5.87,5.87,0,0,0-2.1-8.43h0a5.86,5.86,0,0,0-7,1.14c-36.87,39-55.78,57.59-92.46,88.12a309.11,309.11,0,0,1-25.53-18.63,6.81,6.81,0,0,0-9.72,1.21h0A6.79,6.79,0,0,0,291.19,447.6Z" transform="translate(-228.76 -299.54)"/></svg>