<svg id="Layer_1" data-name="Layer 1" xmlns="http://www.w3.org/2000/svg" viewBox="0 0 222.56 222.56"><defs><style>.cls-1{fill:#c62d2d;}.cls-2{fill:#fff;}</style></defs><path class="cls-1" d="M143.42,811.56a111,111,0,1,1,43.32-8.75A110.45,110.45,0,0,1,143.42,811.56Z" transform="translate(-32.14 -589)"/><path class="cls-2" d="M155.37,700.28,188.7,667a8.45,8.45,0,0,0-11.95-12l-33.33,33.32L110.1,655a8.45,8.45,0,1,0-11.95,12l33.33,33.32L98.15,733.61a8.45,8.45,0,1,0,11.95,11.94l33.32-33.32,33.33,33.32a8.45,8.45,0,0,0,11.95-11.94Z" transform="translate(-32.14 -589)"/></svg>