<svg id="Layer_1" data-name="Layer 1" xmlns="http://www.w3.org/2000/svg" viewBox="0 0 275.05 229.42"><defs><style>.cls-1{fill:#f6da07;}.cls-2{fill:#fff;}</style></defs><path class="cls-1" d="M397.13,505h-253a11,11,0,0,1-9.4-16.75l126.5-207.39a11,11,0,0,1,18.8,0l126.5,207.39A11,11,0,0,1,397.13,505Z" transform="translate(-133.1 -275.57)"/><polygon class="cls-1" points="19.67 213.56 137.53 20.33 255.38 213.56 19.67 213.56"/><circle class="cls-2" cx="137.53" cy="186.59" r="13.96"/><path class="cls-2" d="M272.59,439.94s19.3-51.26,19.3-77a21.26,21.26,0,0,0-42.52,0c0,25.78,19.3,77,19.3,77Z" transform="translate(-133.1 -275.57)"/></svg>