<svg xmlns="http://www.w3.org/2000/svg" viewBox="0 0 1294 550"><defs><style>.cls-1{fill:#0c7b93;}.cls-2{fill:#83b9ff;}.cls-3{fill:#10151b;}</style></defs><g id="_6" data-name="6"><path class="cls-1" d="M413.36,214.48a236.49,236.49,0,0,1-1.69,28.05,1.11,1.11,0,0,1,0,.17c-.09.74-.18,1.49-.28,2.23l-.3,2.3,0,.17c-.09.63-.17,1.26-.27,1.9,0,.3-.09.59-.14.89-.09.62-.19,1.25-.29,1.88a.17.17,0,0,1,0,.07c0,.09,0,.18,0,.26l-.42,2.5c0,.1,0,.21-.05.31-.16,1-.33,1.9-.51,2.84-.35,1.88-.71,3.76-1.1,5.64a2.44,2.44,0,0,0-.06.26c-.18.86-.36,1.73-.55,2.58a.64.64,0,0,1,0,.07c-.07.33-.14.66-.22,1l-.45,2-.18.75c-.14.6-.28,1.2-.43,1.8-.08.36-.17.72-.26,1.08-.14.57-.29,1.15-.44,1.73-.1.37-.2.74-.29,1.11,0,0,0,.05,0,.07-.21.83-.43,1.65-.66,2.48s-.53,1.93-.81,2.9q-.26.93-.54,1.86c0,.11-.06.22-.1.33-.1.37-.21.74-.32,1.11l-.09.3c-.17.57-.35,1.15-.53,1.72s-.28.94-.44,1.4a1.21,1.21,0,0,1-.05.18c-.09.29-.18.59-.28.88l-.06.19c-.12.39-.24.77-.37,1.16l0,0c-.22.68-.44,1.36-.67,2,0,.12-.08.24-.12.36s-.11.31-.16.47c-.21.64-.43,1.28-.65,1.91l-.11.3h0a.11.11,0,0,1,0,0v0c-.32.94-.66,1.88-1,2.81l0,.06C370.9,370.62,311,429.24,241.59,444L0,495.45v-386L241.59,58.05C311,43.27,370.9,76.4,398.27,136.7l0,.06c.33.78.67,1.58,1,2.38,0,0,0,0,0,0a.06.06,0,0,1,0,0h0c0,.09.07.17.11.25.22.54.44,1.09.65,1.64l.16.4a2.85,2.85,0,0,1,.12.31c.23.58.45,1.17.67,1.75l0,0c.13.33.25.66.37,1l.06.17c.1.25.19.51.28.76a.75.75,0,0,1,.05.16c.16.4.3.8.44,1.21s.36,1,.53,1.5l.09.26c.11.32.22.64.32,1a2.47,2.47,0,0,1,.1.29c.19.54.37,1.09.54,1.63.28.85.55,1.7.81,2.56s.45,1.46.66,2.19a.64.64,0,0,0,0,.07c.09.33.19.66.29,1,.15.51.3,1,.44,1.54.09.32.18.64.26,1,.15.53.29,1.07.43,1.61l.18.67.45,1.78c.08.3.15.59.22.89,0,0,0,0,0,.06.19.77.37,1.56.55,2.34a2.27,2.27,0,0,0,.06.25c.39,1.7.75,3.43,1.1,5.16.18.87.35,1.74.51,2.62,0,.1,0,.2.05.29l.42,2.33a2,2,0,0,0,0,.24.15.15,0,0,1,0,.07c.1.58.2,1.17.29,1.75.05.28.1.55.14.83.1.6.18,1.19.27,1.79l0,.16c.1.71.2,1.44.3,2.16s.19,1.41.28,2.12a.88.88,0,0,1,0,.16A218.86,218.86,0,0,1,413.36,214.48Z"/><path class="cls-2" d="M462.27,302.46a204.12,204.12,0,0,1-1.88,27.7l0,.16c-.1.73-.2,1.46-.31,2.18s-.22,1.49-.34,2.23l0,.16c-.1.62-.2,1.23-.31,1.85,0,.28-.09.57-.15.86-.1.6-.21,1.21-.32,1.82a.11.11,0,0,1,0,.07c0,.08,0,.16,0,.24-.15.81-.31,1.62-.46,2.42l-.06.3-.57,2.73q-.58,2.71-1.24,5.4l-.06.25c-.21.82-.41,1.65-.62,2.47,0,0,0,0,0,.06-.08.31-.16.62-.25.94-.16.62-.33,1.24-.5,1.87-.07.23-.13.47-.2.71-.15.57-.32,1.14-.48,1.7-.1.34-.19.68-.3,1-.15.54-.32,1.09-.49,1.63-.1.35-.21.71-.32,1.05a.64.64,0,0,1,0,.07c-.24.78-.49,1.56-.74,2.34s-.59,1.82-.9,2.72c-.2.59-.4,1.17-.61,1.75,0,.11-.07.21-.11.32-.11.34-.23.69-.36,1l-.1.28c-.19.54-.39,1.08-.59,1.61s-.32.88-.49,1.31l-.06.17-.31.82-.07.18c-.13.36-.27.72-.42,1.07,0,0,0,0,0,.05l-.75,1.9c0,.11-.09.22-.14.33l-.18.44c-.24.59-.48,1.18-.73,1.77l-.12.28h0a.08.08,0,0,1,0,0s0,0,0,0c-.36.87-.74,1.74-1.11,2.6l0,.06a193,193,0,0,1-175.22,112H0v-386H270.18a193,193,0,0,1,175.22,112l0,.06c.37.86.75,1.72,1.11,2.6h0a.08.08,0,0,1,0,0h0l.12.27c.25.59.49,1.18.73,1.78l.18.44c.05.11.1.21.14.32l.75,1.91s0,0,0,0q.22.54.42,1.08l.07.18c.1.27.21.54.31.82l.06.16c.17.44.33.88.49,1.32s.4,1.06.59,1.6c0,.09.07.19.1.29.13.34.25.68.36,1,0,.1.08.21.11.31.21.59.41,1.17.61,1.75q.47,1.37.9,2.73c.25.77.5,1.55.74,2.33a.64.64,0,0,0,0,.07c.11.35.22.7.32,1.06.17.54.34,1.08.49,1.63.11.34.2.68.3,1,.16.57.33,1.14.48,1.71.07.23.13.47.2.71.17.62.34,1.25.5,1.87.09.31.17.63.25.94,0,0,0,0,0,.06.21.82.41,1.64.62,2.46l.06.26q.66,2.68,1.24,5.4l.57,2.73.06.3c.15.8.31,1.6.46,2.41,0,.08,0,.17,0,.25a.1.1,0,0,1,0,.07c.11.61.22,1.21.32,1.82.06.28.11.57.15.86.11.61.21,1.23.31,1.84l0,.17c.12.74.23,1.48.34,2.23s.21,1.45.31,2.18l0,.16A204,204,0,0,1,462.27,302.46Z"/><polygon class="cls-3" points="115.57 273.57 144.46 302.47 115.57 331.36 115.57 446.92 57.78 446.92 57.78 158 115.57 158 115.57 273.57"/><polygon class="cls-3" points="231.13 219.25 231.13 446.92 173.35 446.92 173.35 331.36 144.46 302.47 173.35 273.57 173.35 219.25 231.13 219.25"/><path class="cls-3" d="M345.51,284A18.46,18.46,0,1,0,364,302.46,18.46,18.46,0,0,0,345.51,284Zm0,27.7a9.24,9.24,0,1,1,9.22-9.24A9.24,9.24,0,0,1,345.51,311.7Z"/><path class="cls-3" d="M345.51,330.16h56.32A144.49,144.49,0,0,1,260,446.92H238.36V212h-65V158H260a144.5,144.5,0,0,1,141.8,116.77H345.51a27.7,27.7,0,1,0,0,55.39Z"/><polygon class="cls-2" points="1294 158.2 1256.97 211.49 1215.43 211.49 1215.43 446.88 1162.01 446.88 1162.01 211.49 1125.21 211.49 1162.24 158.2 1294 158.2"/><polygon class="cls-2" points="1118.98 393.58 1156.02 446.88 1061.06 446.88 1024.02 393.58 1024.02 158.2 1156.02 158.2 1118.98 211.49 1077.26 211.49 1077.26 275.8 1137.57 302.54 1077.26 329.27 1077.26 393.58 1118.98 393.58"/><polygon class="cls-2" points="1054.83 446.88 966.1 446.88 929.06 393.59 929.06 158.2 982.49 158.2 982.49 393.59 1017.79 393.59 1024.02 402.55 1054.83 446.88"/><polygon class="cls-2" points="959.87 446.88 859.01 446.88 834.1 322.11 834.1 158.2 887.53 158.2 887.53 393.59 922.83 393.59 929.06 402.55 959.87 446.88"/><polygon class="cls-2" points="852.78 446.88 804.67 446.88 791.83 382.57 763.92 349.63 781.18 329.27 763.92 242.92 746.66 329.27 763.92 349.63 736.02 382.57 723.17 446.88 693.75 446.88 751.39 158.2 795.15 158.2 834.1 353.31 852.78 446.88"/><polygon class="cls-2" points="745.16 158.2 687.51 446.88 639.4 446.88 614.44 340.58 589.29 446.88 534.95 446.88 476.83 158.2 531.17 158.2 563.22 305.76 614.11 176.67 665.47 305.94 697.06 158.2 745.16 158.2"/></g></svg>