<svg id="Layer_1" data-name="Layer 1" xmlns="http://www.w3.org/2000/svg" viewBox="0 0 25 25"><defs><style>.cls-1,.cls-2{fill:none;stroke:#83b9ff;stroke-linecap:round;stroke-linejoin:round;}.cls-1{stroke-width:2px;}.cls-2{stroke-width:1.75px;}</style></defs><path class="cls-1" d="M19.09,10.36l3.6-6.3a2.06,2.06,0,0,0-.64-2.72h0A2.05,2.05,0,0,0,19.14,2L15.68,8.09A7.33,7.33,0,0,0,10,11.5C7.72,14.91,3.18,16,3.18,16s0,4.55,11.36,8C14.54,24,22.5,14.91,19.09,10.36Z"/><line class="cls-1" x1="15.68" y1="8.09" x2="19.09" y2="10.36"/><line class="cls-1" x1="10.95" y1="10.95" x2="19.09" y2="16.82"/><path class="cls-1" d="M5.88,19.93a7.58,7.58,0,0,0,3-1.61"/><path class="cls-1" d="M10.56,22.58a7.19,7.19,0,0,0,2.85-3.13"/><rect class="cls-1" x="2.04" y="12.63" transform="matrix(1, -0.07, 0.07, 1, -0.84, 0.16)"/><rect class="cls-2" x="4.45" y="10.22" transform="translate(-5.93 6.14) rotate(-45)"/></svg>