<svg id="Layer_1" data-name="Layer 1" xmlns="http://www.w3.org/2000/svg" viewBox="0 0 20 20"><defs><style>.cls-1,.cls-2{fill:none;stroke:#fff;stroke-linecap:round;stroke-linejoin:round;}.cls-2{stroke-width:0.75px;}</style></defs><path class="cls-1" d="M15.44,8.23l3-5.2A1.7,1.7,0,0,0,17.89.78h0a1.69,1.69,0,0,0-2.4.57l-2.86,5a6.07,6.07,0,0,0-4.7,2.82A10.64,10.64,0,0,1,2.3,12.93s0,3.75,9.39,6.57C11.69,19.5,18.26,12,15.44,8.23Z"/><line class="cls-1" x1="12.63" y1="6.35" x2="15.44" y2="8.23"/><line class="cls-1" x1="8.5" y1="8.5" x2="15.44" y2="13.57"/><path class="cls-1" d="M4.53,16.14A6.24,6.24,0,0,0,7,14.8"/><path class="cls-1" d="M8.4,18.33a6,6,0,0,0,2.35-2.59"/><rect class="cls-1" x="1.36" y="10.11" transform="translate(-0.67 0.11) rotate(-3.83)"/><rect class="cls-2" x="3.18" y="8.29" transform="translate(-4.93 4.67) rotate(-45)"/></svg>