<svg id="Layer_1" data-name="Layer 1" xmlns="http://www.w3.org/2000/svg" viewBox="0 0 1294 440.9"><defs><style>.cls-1{fill:#0c7b93;}.cls-2{fill:#83b9ff;}.cls-3{fill:#10151b;}</style></defs><path class="cls-1" d="M688.28,249.19a236.52,236.52,0,0,1-1.68,28.06.9.9,0,0,1,0,.16c-.08.75-.18,1.5-.27,2.24s-.21,1.54-.31,2.3c0,.05,0,.11,0,.16-.09.64-.18,1.27-.28,1.91,0,.29-.09.59-.13.89-.1.62-.19,1.25-.3,1.88a.2.2,0,0,1,0,.07c0,.08,0,.17,0,.26-.13.83-.27,1.67-.41,2.5,0,.1,0,.21,0,.31-.17.95-.34,1.89-.52,2.84q-.51,2.82-1.1,5.64l-.06.26c-.18.86-.36,1.73-.55,2.58l0,.07c-.07.33-.14.65-.22,1-.14.66-.29,1.31-.45,2-.06.25-.11.5-.17.75-.14.6-.29,1.2-.44,1.79-.08.36-.17.72-.26,1.08-.14.58-.29,1.16-.44,1.73-.09.37-.19.75-.29,1.11l0,.08c-.21.82-.43,1.65-.66,2.47-.26,1-.52,1.94-.8,2.9-.18.62-.36,1.25-.55,1.87l-.09.33-.33,1.11c0,.09-.06.2-.09.3-.17.57-.34,1.15-.52,1.72s-.29.93-.44,1.4l-.06.18c-.08.29-.18.59-.27.88l-.07.19c-.11.39-.24.77-.37,1.16a.43.43,0,0,0,0,.05l-.68,2a2.53,2.53,0,0,1-.12.36c0,.15-.1.31-.16.47-.21.64-.43,1.27-.65,1.91,0,.1-.07.19-.1.29h0l0,0v0l-1,2.82a.11.11,0,0,0,0,.06C645.82,405.34,586,464,516.51,478.74L274.92,530.17v-386L516.51,92.77C586,78,645.82,111.12,673.2,171.42a.08.08,0,0,0,0,.05c.33.79.67,1.59,1,2.39v0l0,0h0c0,.08.06.16.1.25.22.54.44,1.09.65,1.64.06.13.11.27.16.4a1.88,1.88,0,0,1,.12.3c.23.58.45,1.17.68,1.76,0,0,0,0,0,0,.13.33.26.67.37,1,0,.05,0,.11.07.17.09.25.19.5.27.76l.06.15c.15.4.3.81.44,1.22s.35,1,.52,1.5l.09.26.33,1,.09.29c.19.54.37,1.09.55,1.63.28.85.54,1.7.8,2.56s.45,1.46.66,2.19c0,0,0,.05,0,.07.1.32.2.65.29,1,.15.51.3,1,.44,1.54.09.32.18.64.26,1,.15.53.3,1.07.44,1.61.06.22.11.45.17.67.16.59.31,1.18.45,1.78.08.29.15.59.22.89l0,.06c.19.77.37,1.56.55,2.34l.06.24c.39,1.71.76,3.44,1.1,5.17.18.87.35,1.74.52,2.62,0,.09,0,.19,0,.29.14.77.28,1.55.41,2.33a1.72,1.72,0,0,1,0,.24.13.13,0,0,1,0,.06c.11.59.2,1.17.3,1.76,0,.27.09.55.13.83.1.59.19,1.19.28,1.79,0,.05,0,.1,0,.15.1.72.21,1.44.31,2.17s.19,1.41.27,2.12a.76.76,0,0,1,0,.16A218.73,218.73,0,0,1,688.28,249.19Z" transform="translate(-274.92 -89.27)"/><path class="cls-2" d="M737.19,337.18a204.12,204.12,0,0,1-1.88,27.7c0,.05,0,.11,0,.16-.1.73-.21,1.45-.32,2.18s-.22,1.49-.34,2.23a.9.9,0,0,1,0,.16c-.09.62-.19,1.23-.3,1.85l-.15.85-.33,1.82a.15.15,0,0,1,0,.07c0,.08,0,.17,0,.25-.15.81-.31,1.61-.46,2.42,0,.09,0,.2-.06.3-.18.91-.37,1.82-.57,2.72-.39,1.81-.8,3.62-1.24,5.41l-.06.25c-.2.82-.41,1.65-.62,2.46l0,.07c-.08.31-.16.62-.25.93-.16.63-.33,1.25-.5,1.87-.06.24-.13.48-.19.72-.16.57-.32,1.13-.49,1.7-.09.34-.19.68-.29,1-.16.55-.33,1.1-.5,1.64-.1.35-.21.7-.31,1.05,0,0,0,.05,0,.07-.23.78-.48,1.56-.74,2.33s-.59,1.82-.9,2.73c-.19.58-.4,1.17-.6,1.75,0,.11-.07.21-.11.31-.12.35-.24.7-.37,1,0,.09-.06.19-.1.28-.19.54-.38,1.08-.59,1.61s-.31.88-.49,1.31a1.15,1.15,0,0,1-.06.17c-.09.27-.2.55-.31.82a1.34,1.34,0,0,1-.07.18c-.13.35-.27.71-.41,1.07l0,.05-.75,1.9c0,.11-.09.22-.14.33l-.18.44c-.24.59-.48,1.18-.73,1.77l-.11.27h0l0,0v0c-.36.87-.74,1.74-1.11,2.6a.11.11,0,0,0,0,.05,193,193,0,0,1-175.23,112H274.92v-386H545.1a193,193,0,0,1,175.23,112,.11.11,0,0,0,0,.05c.37.87.75,1.73,1.11,2.6v0s0,0,0,0h0l.11.27c.25.59.49,1.18.73,1.77l.18.44c0,.11.1.22.14.33l.75,1.9,0,.05c.14.36.28.72.41,1.07,0,.06,0,.13.07.18.11.28.22.55.31.82a1.15,1.15,0,0,1,.06.17c.18.44.34.87.49,1.31s.4,1.07.59,1.61c0,.09.07.19.1.28.13.34.25.69.37,1,0,.1.07.21.11.31.2.58.41,1.17.6,1.75.31.91.61,1.81.9,2.73s.51,1.55.74,2.33c0,0,0,.05,0,.07.1.35.21.7.31,1,.17.55.34,1.09.5,1.64.1.34.2.68.29,1,.17.57.33,1.13.49,1.71.06.23.13.47.19.71.17.62.34,1.24.5,1.87.09.31.17.62.25.93a.64.64,0,0,0,0,.07c.21.81.42,1.64.62,2.46l.06.25q.66,2.7,1.24,5.41c.2.9.39,1.81.57,2.72l.06.3c.15.81.31,1.61.46,2.42,0,.08,0,.17,0,.25a.15.15,0,0,1,0,.07l.33,1.82.15.85c.11.62.21,1.23.3,1.85a.9.9,0,0,1,0,.16c.12.74.23,1.49.34,2.23s.22,1.45.32,2.18c0,.06,0,.11,0,.16A204.12,204.12,0,0,1,737.19,337.18Z" transform="translate(-274.92 -89.27)"/><polygon class="cls-3" points="115.57 219.02 144.46 247.92 115.57 276.81 115.57 392.37 57.78 392.37 57.78 103.45 115.57 103.45 115.57 219.02"/><polygon class="cls-3" points="231.13 164.7 231.13 392.37 173.35 392.37 173.35 276.81 144.46 247.92 173.35 219.02 173.35 164.7 231.13 164.7"/><path class="cls-3" d="M620.43,318.72a18.46,18.46,0,1,0,18.46,18.46A18.45,18.45,0,0,0,620.43,318.72Zm0,27.69a9.23,9.23,0,1,1,9.23-9.23A9.23,9.23,0,0,1,620.43,346.41Z" transform="translate(-274.92 -89.27)"/><path class="cls-3" d="M620.43,364.88h56.33A144.51,144.51,0,0,1,535,481.64H513.28V246.75h-65v-54H535A144.51,144.51,0,0,1,676.76,309.48H620.43a27.7,27.7,0,1,0,0,55.4Z" transform="translate(-274.92 -89.27)"/><polygon class="cls-2" points="1294 103.64 1256.97 156.94 1215.43 156.94 1215.43 392.33 1162.01 392.33 1162.01 156.94 1125.21 156.94 1162.24 103.64 1294 103.64"/><polygon class="cls-2" points="1118.98 339.03 1156.02 392.33 1061.06 392.33 1024.02 339.03 1024.02 103.64 1156.02 103.64 1118.98 156.94 1077.26 156.94 1077.26 221.25 1137.57 247.99 1077.26 274.72 1077.26 339.03 1118.98 339.03"/><polygon class="cls-2" points="1054.83 392.33 966.1 392.33 929.06 339.04 929.06 103.65 982.49 103.65 982.49 339.04 1017.79 339.04 1024.02 348 1054.83 392.33"/><polygon class="cls-2" points="959.87 392.33 859.01 392.33 834.1 267.56 834.1 103.65 887.53 103.65 887.53 339.04 922.83 339.04 929.06 348 959.87 392.33"/><polygon class="cls-2" points="852.78 392.33 804.67 392.33 791.83 328.02 763.92 295.08 781.18 274.72 763.92 188.37 746.66 274.72 763.92 295.08 736.02 328.02 723.17 392.33 693.75 392.33 751.39 103.65 795.15 103.65 834.1 298.76 852.78 392.33"/><polygon class="cls-2" points="745.16 103.65 687.51 392.33 639.4 392.33 614.44 286.03 589.29 392.33 534.95 392.33 476.83 103.65 531.17 103.65 563.22 251.21 614.11 122.12 665.47 251.39 697.06 103.65 745.16 103.65"/></svg>